<svg xmlns="http://www.w3.org/2000/svg" viewBox="0 0 2000 2000" width="550" height="550"><g data-name="Layer 1" fill="#000000" class="color000 svgShape"><path fill="#545ed7" d="M1327.58 651.79H671.25V571h656.33Zm-653.85-2.48h651.37v-75.85H673.73Z" class="color545ed7 svgShape"></path><rect width="467.42" height="140.23" x="667.98" y="1258.07" fill="#9983e7" rx="11.84" class="color9983e7 svgShape"></rect><path fill="#ffffff" d="M953.74 1331.36H839.53a3.18 3.18 0 1 1 0-6.35h114.21a3.18 3.18 0 0 1 0 6.35Z" class="colorfff svgShape"></path><path fill="#ffffff" d="M953.74 1331.36a3.18 3.18 0 0 1-2.25-.93L931 1310a3.17 3.17 0 0 1 4.49-4.49l20.51 20.43a3.18 3.18 0 0 1-2.24 5.42Z" class="colorfff svgShape"></path><path fill="#ffffff" d="M933.29 1351.81a3.18 3.18 0 0 1-2.25-5.42l20.45-20.45a3.17 3.17 0 1 1 4.49 4.49l-20.45 20.45a3.16 3.16 0 0 1-2.24.93Z" class="colorfff svgShape"></path><path fill="#c6c9f5" d="M759.45 1134.62h556.1v28.34h-556.1zM672.56 527.83h282.01v28.34H672.56zM844.48 347.11h353.79v30.26H844.48z" class="colorc6c9f5 svgShape"></path><path fill="#c6c9f5" d="M1437.79 1566.29h-852.5V162.69h852.5Zm-846-6.5h839.51V169.18H591.78Z" class="colorc6c9f5 svgShape"></path><path fill="#464646" d="M1339 900.37a20 20 0 0 1-19.86 19.87H685.92a19.92 19.92 0 1 1 0-39.83h633.22a20 20 0 0 1 19.86 19.96Z" class="color464646 svgShape"></path><path fill="#9983e7" d="M1072.92 900.37a19.75 19.75 0 0 1-5.85 14 20 20 0 0 1-14.11 5.85h-367a19.92 19.92 0 1 1 0-39.83h367a20 20 0 0 1 19.96 19.98Z" class="color9983e7 svgShape"></path><path fill="#0d0d0d" d="M1117.51 900.37a37.49 37.49 0 0 1-5.66 19.87h-65.36a37.87 37.87 0 0 1 0-39.83h65.36a37.57 37.57 0 0 1 5.66 19.96Z" class="color0d0d0d svgShape"></path><circle cx="1072.87" cy="900.35" r="38.32" fill="#7158cc" transform="rotate(-39.35 1072.701 900.291)" class="color7158cc svgShape"></circle><circle cx="709.19" cy="756.54" r="35.92" fill="#ff7867" class="colorff7867 svgShape"></circle><path fill="#9983e7" d="M823.59 803.92A47.38 47.38 0 1 1 871 756.54a47.43 47.43 0 0 1-47.41 47.38Zm0-92a44.6 44.6 0 1 0 44.6 44.59 44.65 44.65 0 0 0-44.6-44.51Z" class="color9983e7 svgShape"></path><circle cx="823.59" cy="756.54" r="35.92" fill="#9983e7" class="color9983e7 svgShape"></circle><circle cx="944.76" cy="756.54" r="35.92" fill="#545ed7" class="color545ed7 svgShape"></circle><circle cx="1065.29" cy="756.54" r="35.92" fill="#464646" class="color464646 svgShape"></circle><path fill="#ffffff" d="m822.57 768-12.32-11.14a1.71 1.71 0 0 1 2.29-2.53l9.54 8.64 12.35-16.43a1.7 1.7 0 0 1 2.72 2Z" class="colorfff svgShape"></path><path fill="#7158cc" d="M728.35 978.67h-29.2a38.6 38.6 0 0 0-38.59 38.6v1.4a38.6 38.6 0 0 0 38.59 38.6h29.2Z" class="color7158cc svgShape"></path><path fill="#9983e7" d="M732.94 978.67h153.7v78.6h-153.7z" class="color9983e7 svgShape"></path><path fill="#7158cc" d="M921.51 978.67H891v78.6h30.54a38.6 38.6 0 0 0 38.6-38.6v-1.4a38.6 38.6 0 0 0-38.63-38.6Z" class="color7158cc svgShape"></path><path fill="#ffffff" d="M699.43 1030.65a.93.93 0 0 1-.64-.26L687 1018.6a.89.89 0 0 1 0-1.26.9.9 0 0 1 1.27 0l11.78 11.78a.9.9 0 0 1-.63 1.53Z" class="colorfff svgShape"></path><path fill="#ffffff" d="M687.65 1018.87a.9.9 0 0 1-.64-.27.89.89 0 0 1 0-1.26l11.78-11.78a.9.9 0 0 1 1.27 0 .89.89 0 0 1 0 1.26l-11.78 11.78a.86.86 0 0 1-.63.27ZM919.65 1030.65a.89.89 0 0 1-.63-.26.88.88 0 0 1 0-1.27l11.77-11.78a.9.9 0 0 1 1.27 0 .89.89 0 0 1 0 1.26l-11.78 11.79a.89.89 0 0 1-.63.26Z" class="colorfff svgShape"></path><path fill="#ffffff" d="M931.43 1018.87a.9.9 0 0 1-.64-.27L919 1006.82a.87.87 0 0 1 0-1.26.89.89 0 0 1 1.26 0l11.78 11.78a.89.89 0 0 1 0 1.26.86.86 0 0 1-.61.27ZM759.51 1012.08h102.38v14.19H759.51z" class="colorfff svgShape"></path><path fill="#7158cc" d="M1053.72 978.67h-29.2a38.6 38.6 0 0 0-38.6 38.6v1.4a38.6 38.6 0 0 0 38.6 38.6h29.2Z" class="color7158cc svgShape"></path><path fill="#9983e7" d="M1058.3 978.67H1212v78.6h-153.7z" class="color9983e7 svgShape"></path><path fill="#545ed9" d="M1246.88 978.67h-30.54v78.6h30.54a38.6 38.6 0 0 0 38.59-38.6v-1.4a38.6 38.6 0 0 0-38.59-38.6Z" class="color545ed9 svgShape"></path><path fill="#ffffff" d="M1024.8 1030.65a.93.93 0 0 1-.64-.26l-11.78-11.79a.89.89 0 0 1 0-1.26.9.9 0 0 1 1.27 0l11.78 11.78a.9.9 0 0 1-.63 1.53Z" class="colorfff svgShape"></path><path fill="#ffffff" d="M1013 1018.87a.9.9 0 0 1-.64-.27.89.89 0 0 1 0-1.26l11.78-11.78a.9.9 0 0 1 1.27 0 .89.89 0 0 1 0 1.26l-11.78 11.78a.86.86 0 0 1-.63.27ZM1245 1030.65a.93.93 0 0 1-.64-.26.9.9 0 0 1 0-1.27l11.78-11.78a.9.9 0 0 1 1.27 0 .89.89 0 0 1 0 1.26l-11.78 11.79a.89.89 0 0 1-.63.26Z" class="colorfff svgShape"></path><path fill="#ffffff" d="M1256.8 1018.87a.9.9 0 0 1-.64-.27l-11.78-11.78a.89.89 0 0 1 0-1.26.9.9 0 0 1 1.27 0l11.78 11.78a.89.89 0 0 1 0 1.26.86.86 0 0 1-.63.27ZM1084.88 1012.08h102.38v14.19h-102.38z" class="colorfff svgShape"></path><circle cx="744.62" cy="361.28" r="79.89" fill="#7158cc" transform="rotate(-73.87 744.578 361.284)" class="color7158cc svgShape"></circle><path fill="#ffffff" d="M785.81 380.53h-48.34a2.1 2.1 0 0 1 0-4.2h48.34a2.1 2.1 0 1 1 0 4.2ZM714.29 380.53h-11.23a2.1 2.1 0 1 1 0-4.2h11.23a2.1 2.1 0 1 1 0 4.2Z" class="colorfff svgShape"></path><path fill="#ffffff" d="M725.88 392.12a13.69 13.69 0 1 1 13.69-13.69 13.7 13.7 0 0 1-13.69 13.69Zm0-23.18a9.49 9.49 0 1 0 9.49 9.49 9.5 9.5 0 0 0-9.49-9.49ZM785.81 346.22h-8.87a2.1 2.1 0 0 1 0-4.2h8.87a2.1 2.1 0 0 1 0 4.2ZM753.76 346.22h-50.7a2.1 2.1 0 1 1 0-4.2h50.7a2.1 2.1 0 0 1 0 4.2Z" class="colorfff svgShape"></path><path fill="#ffffff" d="M765.35 357.82a13.69 13.69 0 1 1 13.7-13.7 13.71 13.71 0 0 1-13.7 13.7Zm0-23.18a9.49 9.49 0 1 0 9.49 9.48 9.5 9.5 0 0 0-9.49-9.48Z" class="colorfff svgShape"></path><path fill="#434345" d="M1571.39 676.29s22.42-3.4 25.64-20.21l-44.31-6.08ZM1149 687.21s-18.43.23-27.6-16l35.66-25.78s7.36 17.39-8.06 41.78Z" class="color434345 svgShape"></path><path fill="#ffd0ca" d="m1519.71 1772.6-.93 115.13h-47.35l-13.66-115.13h61.94z" class="colorffd0ca svgShape"></path><path fill="#ff7865" d="m1519.31 1822.27-.53 65.46h-47.35l-7.77-65.46h55.65z" class="colorff7865 svgShape"></path><path fill="#545ed9" d="M1533.22 1909.78h-79.36a10.41 10.41 0 0 1-9.61-14.38l20-47.94h2.42s6.44-.84 9.23 24.23h33.55s.76-16.92 10.32-24.23h3.23l20 48.32a10.4 10.4 0 0 1-9.78 14Z" class="color545ed9 svgShape"></path><path fill="#ffffff" d="M1519.71 1831.55h-55.11a1.39 1.39 0 0 1 0-2.78h55.11a1.39 1.39 0 0 1 0 2.78ZM1543.55 1902h-100a1.39 1.39 0 1 1 0-2.78h100a1.39 1.39 0 1 1 0 2.78Z" class="colorfff svgShape"></path><path fill="#ffd0ca" d="m1209.42 1772.6.93 115.13h47.35l13.66-115.13h-61.94z" class="colorffd0ca svgShape"></path><path fill="#ff7865" d="m1209.82 1822.27.53 65.46h47.35l7.77-65.46h-55.65z" class="colorff7865 svgShape"></path><path fill="#545ed9" d="M1195.91 1909.78h79.35a10.4 10.4 0 0 0 9.61-14.38l-20-47.94h-2.42s-6.44-.84-9.23 24.23h-33.56s-.75-16.92-10.31-24.23h-3.23l-20 48.32a10.4 10.4 0 0 0 9.79 14Z" class="color545ed9 svgShape"></path><path fill="#ffffff" d="M1264.53 1831.55h-55.11a1.39 1.39 0 0 1 0-2.78h55.11a1.39 1.39 0 1 1 0 2.78ZM1285.6 1902h-100a1.39 1.39 0 1 1 0-2.78h100a1.39 1.39 0 1 1 0 2.78Z" class="colorfff svgShape"></path><path fill="#ffd0ca" d="M1379.41 399.31c0 11 .39 19.92 11.39 19.92s28.45-8.92 28.45-19.92a19.92 19.92 0 0 0-39.84 0ZM1316.92 399.31c0 11-.39 19.92-11.39 19.92s-28.45-8.92-28.45-19.92a19.92 19.92 0 0 1 39.84 0ZM1308.44 435.33h80.44v33.66h-80.44z" class="colorffd0ca svgShape"></path><path fill="#434345" d="m1414.17 335.65-16.92 82.92a35.84 35.84 0 0 1-11 19.39c-7.73 7-20.51 14.43-39.15 12.69-15.81-1.47-26.61-6.78-33.64-12a35.33 35.33 0 0 1-13.08-20.65l-15.44-60.67a62.21 62.21 0 0 1 17-59.73c8.23-7.91 18.76-13.79 30.11-15.61 19-3.05 41.21 5.23 50.77 22.62a44.43 44.43 0 0 1 5.06 16.77s6-12.38 20.66-4.56c10.21 5.45 5.63 18.83 5.63 18.83Z" class="color434345 svgShape"></path><path fill="#ffd0ca" d="m1153.7 666.3-81.27 50.92a66.65 66.65 0 0 1-47.44 9 66.62 66.62 0 0 1-53.27-52.56l-40.1-202.18 44.82-14.26 77.43 154 37.35-27.66s90.54 23.27 62.48 82.74Z" class="colorffd0ca svgShape"></path><path fill="#ff7865" d="m1496.68 843.17 36.87 936.15h-92l-85.41-814h-19.6l-52 814h-89l-11.78-959.51s240.93-72.95 312.92 23.36Z" class="colorff7865 svgShape"></path><path fill="#545ed9" d="M1110.24 629.77C1168 654.23 1149 687.2 1149 687.2l41.18-23-17.76 159.29c3.16 3.75 6.21 7.27 9.19 10.58 4.63 5.09 9.06 9.65 13.39 13.72 49.8 47 83.74 29 174.64-6.11 25.63-9.87 47.39-13.86 65.66-14.22a129.16 129.16 0 0 1 20 1.06c41.46 5.57 59 30.15 59 30.15l-9.94-161.49-1.26-20.42-3.07-50 71.32 49.59s-22.41-48.22 24.79-60.44 39-51.29 39-51.29L1503.33 483a76.87 76.87 0 0 0-31-11l-43.13-5.61c-6.29-1-145.3 1.71-172 2.24-2.85 0-4.43.09-4.43.09a76.67 76.67 0 0 0-47.69 18.28l-67.73 51.42-16 12.18-32.23 24.47c-4.79 42.76 21.12 54.7 21.12 54.7Z" class="color545ed9 svgShape"></path><path fill="#ffd0ca" d="m1496.67 846.13 3.8 122.56 29-58-3.6-37.84L1695 719.29a73.37 73.37 0 0 0-4.73-112.61l-54.62-38.3s4.53 34.9-39.5 47.47c-21.7 6.2-28.78 19-29.91 31.75a74.79 74.79 0 0 0 .74 14v.28l40.31 26.93-94.85 133.83-11.53 17Z" class="colorffd0ca svgShape"></path><path fill="#3944c7" d="M1500.08 628.31a1.6 1.6 0 0 1-1.6-1.51l-4.26-77.09a1.6 1.6 0 1 1 3.19-.17l4.27 77.08a1.61 1.61 0 0 1-1.51 1.69ZM1190.23 665.78h-.13a1.59 1.59 0 0 1-1.47-1.72l7.85-95.79a1.7 1.7 0 0 1 1.73-1.47 1.6 1.6 0 0 1 1.46 1.73l-7.85 95.79a1.61 1.61 0 0 1-1.59 1.46Z" class="color3944c7 svgShape"></path><path fill="#db4f3e" d="M1374.44 966.93h-66a1.61 1.61 0 0 1 0-3.21h66a1.61 1.61 0 0 1 0 3.21Z" class="colordb4f3e svgShape"></path><path fill="#ffcec8" d="m935.1 482.6-17.81-48.34 47.06-14.67 17.29 48.01-46.54 15z" class="colorffcec8 svgShape"></path><path fill="#ffcec8" d="m977.24 457.91 10.68-47.38a6.11 6.11 0 0 0-9.12 1.22l-17.16 26.06ZM964.55 420.24l-17.09-44.95a4.27 4.27 0 0 0-5.25-2.53 4.16 4.16 0 0 0-2.81 5.24l14.08 45.57ZM924 365.28a4.65 4.65 0 0 1 3.83-5.81 4.76 4.76 0 0 1 5.27 3.15l10.59 31.68-11.06 2.19Z" class="colorffcec8 svgShape"></path><path fill="#ffcec8" d="m943.72 394.3 9.76 29.22-12.32 3.66-8.5-30.69 11.06-2.19z" class="colorffcec8 svgShape"></path><path fill="#ffcec8" d="M941.16 427.18 925.33 370a5 5 0 0 0-6-3.49 4.9 4.9 0 0 0-3.69 5.9l14 58.2Z" class="colorffcec8 svgShape"></path><path fill="#ffcec8" d="m929.67 430.59-9.79-34a5.14 5.14 0 0 0-6.18-3.74 5 5 0 0 0-3.9 5.74l7.49 35.69Z" class="colorffcec8 svgShape"></path><path fill="#ffffff" d="M1285.6 1740.92H1195a1.4 1.4 0 0 1 0-2.79h90.56a1.4 1.4 0 0 1 0 2.79ZM1530.53 1740.92h-92.7a1.4 1.4 0 0 1 0-2.79h92.7a1.4 1.4 0 0 1 0 2.79Z" class="colorfff svgShape"></path><path fill="#bbbdfa" d="M1457.88 664.88a9.73 9.73 0 0 0 4.36 8.13l34.48 22.81a9.76 9.76 0 0 0 7.69 1.34l-1.26-20.42-30.16-20a9.73 9.73 0 0 0-15.11 8.12ZM1433.36 815.9a9.78 9.78 0 0 0 .17 1.79l1.81 9.75a129.16 129.16 0 0 1 20 1.06l-2.67-14.37a9.74 9.74 0 0 0-19.31 1.77ZM1256.13 580.68l23.2 34.2a9.73 9.73 0 0 0 13.52 2.59 9.73 9.73 0 0 0 2.59-13.52l-23.2-34.2a9.73 9.73 0 0 0-13.52-2.59 9.73 9.73 0 0 0-2.59 13.52ZM1410.33 497.77l-4.33 41.1a9.73 9.73 0 0 0 8.66 10.7 9.74 9.74 0 0 0 10.7-8.66l4.33-41.1a9.73 9.73 0 0 0-8.66-10.7 9.73 9.73 0 0 0-10.7 8.66ZM1224.37 475a9.51 9.51 0 0 0 2.2 1.34l37.76 16.85a9.75 9.75 0 0 0 12.85-4.95 9.49 9.49 0 0 0 .83-3.94 9.76 9.76 0 0 0-5.75-8.92l-15.1-6.71c-2.85 0-4.43.09-4.43.09a76.63 76.63 0 0 0-28.36 6.24ZM1121.32 550.58l5.76 14a9.73 9.73 0 1 0 18-7.39l-7.74-18.83ZM1575.26 552.07l-30.94 27.4a9.73 9.73 0 0 0-.83 13.74 9.73 9.73 0 0 0 13.74.84l30.94-27.4a9.75 9.75 0 0 0 .83-13.75 9.74 9.74 0 0 0-13.74-.83ZM1181.65 834.05c4.63 5.09 9.06 9.65 13.39 13.72l34.15-23.15a9.73 9.73 0 1 0-10.93-16.11l-34.2 23.19a9.63 9.63 0 0 0-2.41 2.35ZM1314.63 736.12l39.93-10.67a9.75 9.75 0 0 0 6.89-11.92 9.74 9.74 0 0 0-11.92-6.89l-39.93 10.68a9.73 9.73 0 0 0-6.89 11.91 9.73 9.73 0 0 0 11.92 6.89Z" class="colorbbbdfa svgShape"></path><path fill="#545ed7" d="M669.58 1115.86h61.46v61.46h-61.46z" class="color545ed7 svgShape"></path><path fill="#ffffff" d="M699.11 1160.78 685 1148a1.94 1.94 0 0 1 2.61-2.88l10.92 9.87 14.12-18.78a1.94 1.94 0 1 1 3.11 2.33Z" class="colorfff svgShape"></path><path fill="#979cdb" d="M335.33 1906.58h1268.11v6.4H335.33z" class="color979cdb svgShape"></path><path fill="#979cdb" d="M364.14 1800.49h221.83v5.51H364.14z" transform="rotate(-71.34 474.955 1803.168)" class="color979cdb svgShape"></path><path fill="#979cdb" d="M659.69 1692.33h5.51v221.83h-5.51z" transform="rotate(-18.66 662.272 1802.97)" class="color979cdb svgShape"></path><path fill="#979cdb" d="M563.11 1703.97h5.51v204.36h-5.51z" class="color979cdb svgShape"></path><path fill="#ff7867" d="M522.73 1307.57h5.51v126.61h-5.51z" transform="rotate(-12.27 525.64 1371.16)" class="colorff7867 svgShape"></path><path fill="#ff7867" d="M531.07 1288.8a22.88 22.88 0 1 1-22.88-22.87 22.88 22.88 0 0 1 22.88 22.87Z" class="colorff7867 svgShape"></path><path fill="#545ed7" d="M458.46 1529.77s-48.08-76.68-28.7-182.16c0 0 96.17 34.71 128 182.16Z" class="color545ed7 svgShape"></path><path fill="#ff7867" d="M529.58 1448.92s39.78-140.86 163.87-171.92c0 0 61.27 106.83-20.17 252.73H557.73s-17.1-61.2-28.15-80.81Z" class="colorff7867 svgShape"></path><path fill="#ffffff" d="M510.53 1531.42a1.65 1.65 0 0 1-1.51-1l-71-159.66a1.65 1.65 0 1 1 3-1.35l71 159.66a1.66 1.66 0 0 1-.83 2.19 1.8 1.8 0 0 1-.66.16Z" class="colorfff svgShape"></path><path fill="#ffffff" d="M492.22 1490.22h-.24a1.64 1.64 0 0 1-1.39-1.87l5.79-38.64a1.65 1.65 0 0 1 3.27.49l-5.79 38.63a1.66 1.66 0 0 1-1.64 1.39ZM475.05 1451.59a1.63 1.63 0 0 1-.82-.22l-31.63-18.26a1.66 1.66 0 0 1 1.65-2.87l31.63 18.26a1.66 1.66 0 0 1-.83 3.09ZM591.08 1531.42a1.66 1.66 0 0 1-1.54-2.27l91.52-226.36a1.65 1.65 0 1 1 3.06 1.24l-91.51 226.36a1.65 1.65 0 0 1-1.53 1.03Z" class="colorfff svgShape"></path><path fill="#ffffff" d="M618.36 1464a1.64 1.64 0 0 1-1.63-1.38l-14.87-88.32a1.65 1.65 0 1 1 3.25-.54L620 1462a1.64 1.64 0 0 1-1.35 1.9ZM643.84 1400.92a1.65 1.65 0 0 1-.75-3.12l49.61-25.29a1.65 1.65 0 0 1 1.5 2.94l-49.61 25.29a1.69 1.69 0 0 1-.75.18Z" class="colorfff svgShape"></path><path fill="#545ed7" d="M658.51 1475.69h133.46v5.51H658.51z" transform="rotate(-50.24 725.197 1478.412)" class="color545ed7 svgShape"></path><path fill="#ff7867" d="M420.03 1437.05h5.51v100.21h-5.51z" transform="rotate(-31.75 422.884 1487.31)" class="colorff7867 svgShape"></path><path fill="#ff7867" d="M409.58 1427.13a22.88 22.88 0 1 1-22.87-22.88 22.87 22.87 0 0 1 22.87 22.88Z" class="colorff7867 svgShape"></path><path fill="#545ed7" d="M803.57 1409.5a22.88 22.88 0 1 1-22.87-22.88 22.87 22.87 0 0 1 22.87 22.88Z" class="color545ed7 svgShape"></path><path fill="#ffffff" d="M568.75 1774a119.65 119.65 0 0 1-119.11-108.3l-12.95-135.9H700.8l-12.95 135.9a119.65 119.65 0 0 1-119.1 108.3Z" class="colorfff svgShape"></path><path fill="#979cdb" d="M568.75 1776.72a121.91 121.91 0 0 1-121.85-110.79L433.66 1527h270.17l-13.24 138.92a121.91 121.91 0 0 1-121.84 110.8Zm-129-244.2 12.67 132.89a116.88 116.88 0 0 0 232.71 0l12.67-132.89Z" class="color979cdb svgShape"></path></g></svg>