<svg xmlns="http://www.w3.org/2000/svg" viewBox="0 0 1686.305 1464.382" width="550" height="550"><g data-name="Layer 3" fill="#000000" class="color000 svgShape"><path fill="#004081" d="m1202.182 1074.523 484.123 279.509V795.015l-484.123 279.508z" class="color004081 svgShape"></path><path fill="#004081" d="M1286.07 950.823h70.96v247.402h-70.96z" class="color004081 svgShape"></path><path fill="#00c6e3" d="M1156.42 905.587h159.476v337.872H1156.42z" class="color00c6e3 svgShape"></path><path fill="#004081" d="M1015.093 869.678h259.331v409.69h-259.331z" class="color004081 svgShape"></path><path fill="none" stroke="#fff" stroke-linecap="round" stroke-miterlimit="10" stroke-width="15.725" d="M1188.471 905.042h67.531M1385.53 1007.996l251.861-138.318" class="colorStrokefff svgStroke"></path><path fill="none" stroke="#132c4a" stroke-miterlimit="10" stroke-width="13.686" d="m149.684 521.167 259.268 441.878M200.228 404.435l570.024-271.511" class="colorStroke132c4a svgStroke"></path><path fill="#004081" d="M846.003 603.344c-135.792 0-246.27-110.478-246.27-246.27s110.478-246.27 246.27-246.27c135.819 0 246.297 110.478 246.297 246.27s-110.478 246.27-246.297 246.27Z" class="color004081 svgShape"></path><circle cx="846.014" cy="357.078" r="222.992" fill="#004081" transform="rotate(-45 846.014 357.078)" class="color004081 svgShape"></circle><path fill="#00c6e3" d="M869.208.734C653.711-12.882 476.053 164.776 489.67 380.273c11.23 177.716 155.434 321.92 333.15 333.15 215.496 13.616 393.155-164.042 379.538-379.539-11.229-177.716-155.433-321.92-333.15-333.15ZM536.92 357.078a307.79 307.79 0 0 1 17.38-102.229c7.267-20.681 31.971-29.251 50.955-18.29l124.242 71.73c37.559 21.684 37.559 75.895 0 97.58l-124.242 71.73c-18.984 10.96-43.688 2.39-50.955-18.292a307.792 307.792 0 0 1-17.38-102.23Zm251.517 303.736A308.687 308.687 0 0 1 611.752 558.61c-14.321-16.639-9.424-42.363 9.588-53.34l124.166-71.686c37.559-21.684 84.507 5.422 84.507 48.79v143.462c0 22.02-19.938 39.058-41.576 34.978Zm-42.93-380.241L621.34 208.886c-19.012-10.976-23.91-36.7-9.589-53.34A308.685 308.685 0 0 1 788.438 53.342c21.637-4.08 41.575 12.96 41.575 34.978v143.462c0 43.37-46.948 70.475-84.507 48.79ZM903.6 53.343a308.685 308.685 0 0 1 176.677 102.203c14.32 16.639 9.423 42.363-9.589 53.34l-124.157 71.68c-37.56 21.685-84.507-5.421-84.507-48.79V88.322c0-22.02 19.938-39.059 41.576-34.978Zm-41.576 572.492V482.38c0-43.369 46.948-70.474 84.507-48.79l124.157 71.68c19.012 10.977 23.909 36.701 9.588 53.34A308.687 308.687 0 0 1 903.6 660.813c-21.638 4.08-41.576-12.96-41.576-34.978ZM962.53 308.288l124.243-71.73c18.984-10.96 43.689-2.391 50.955 18.29a309.333 309.333 0 0 1 0 204.46c-7.266 20.682-31.97 29.252-50.955 18.292L962.53 405.869c-37.56-21.684-37.56-75.896 0-97.58Z" class="color00c6e3 svgShape"></path><circle cx="846.347" cy="358.26" r="66.638" fill="#05a4c9" transform="rotate(-45 846.347 358.26)" class="color05a4c9 svgShape"></circle><circle cx="855.037" cy="364.587" r="60.312" fill="#00c6e3" class="color00c6e3 svgShape"></circle><path fill="#05a4c9" d="M852.53 357.078a6.516 6.516 0 1 1-6.516-6.516 6.516 6.516 0 0 1 6.516 6.516Z" class="color05a4c9 svgShape"></path><path fill="#004081" d="M250.255 608.156a114.3 114.3 0 1 1 114.3-114.3 114.422 114.422 0 0 1-114.3 114.3Z" class="color004081 svgShape"></path><path fill="#00c6e3" d="M264.577 273.983c-132.96-8.4-242.572 101.212-234.17 234.171 6.928 109.649 95.9 198.621 205.549 205.55 132.958 8.401 242.572-101.212 234.17-234.171-6.928-109.649-95.9-198.621-205.549-205.55ZM59.559 493.843a189.902 189.902 0 0 1 10.723-63.074c4.484-12.76 19.726-18.047 31.439-11.285l76.655 44.256c23.174 13.38 23.174 46.828 0 60.207l-76.655 44.256c-11.713 6.762-26.955 1.475-31.439-11.286a189.904 189.904 0 0 1-10.723-63.074Zm155.183 187.402a190.457 190.457 0 0 1-109.013-63.059c-8.835-10.266-5.814-26.138 5.916-32.91l76.61-44.23c23.172-13.378 52.139 3.346 52.139 30.104v88.514c0 13.585-12.302 24.098-25.652 21.581ZM188.254 446.64l-76.61-44.23c-11.73-6.772-14.75-22.643-5.915-32.91a190.456 190.456 0 0 1 109.013-63.058c13.35-2.518 25.652 7.995 25.652 21.58v88.515c0 26.758-28.967 43.482-52.14 30.103Zm97.542-140.197A190.455 190.455 0 0 1 394.804 369.5c8.835 10.266 5.814 26.138-5.916 32.91l-76.604 44.227c-23.173 13.379-52.14-3.345-52.14-30.103v-88.51c0-13.586 12.302-24.099 25.652-21.581Zm-25.652 353.22v-88.51c0-26.757 28.967-43.481 52.14-30.102l76.603 44.226c11.73 6.772 14.752 22.644 5.916 32.91a190.456 190.456 0 0 1-109.007 63.057c-13.35 2.518-25.652-7.995-25.652-21.581Zm62.011-195.922 76.657-44.257c11.713-6.763 26.955-1.475 31.438 11.285a190.856 190.856 0 0 1 0 126.15c-4.483 12.76-19.725 18.047-31.438 11.285l-76.657-44.257c-23.173-13.38-23.173-46.827 0-60.206Z" class="color00c6e3 svgShape"></path><circle cx="250.471" cy="494.573" r="41.115" fill="#05a4c9" class="color05a4c9 svgShape"></circle><circle cx="255.833" cy="498.476" r="37.212" fill="#00c6e3" class="color00c6e3 svgShape"></circle><circle cx="250.266" cy="493.843" r="4.02" fill="#05a4c9" class="color05a4c9 svgShape"></circle><path fill="#004081" d="M132.041 780.325h72.575v38.716h-72.575z" class="color004081 svgShape"></path><path fill="#00c6e3" d="M52.88 807.173h99.97v404.064H52.88z" class="color00c6e3 svgShape"></path><path fill="#004081" d="M152.85 807.173h72.565v404.064H152.85z" class="color004081 svgShape"></path><path fill="none" stroke="#0adfef" stroke-miterlimit="10" stroke-width="6.517" d="M171.259 876.434v308.931M190.779 876.434v308.931M210.298 876.434v308.931" class="colorStroke0adfef svgStroke"></path><path fill="none" stroke="#fff" stroke-miterlimit="10" stroke-width="6.517" d="M71.409 876.434v308.931M92.38 876.434v308.931M113.351 876.434v308.931M134.322 876.434v308.931" class="colorStrokefff svgStroke"></path><path fill="#00c6e3" d="M71.922 780.325h61.886v38.716H71.922z" class="color00c6e3 svgShape"></path><path fill="none" stroke="#fff" stroke-miterlimit="10" stroke-width="6.517" d="M69.323 856.152h66.791M69.323 842.044h66.791M69.323 827.936h66.791" class="colorStrokefff svgStroke"></path><path fill="#ffa904" d="M595.169 733.725h144.902v379.506H595.169z" class="colorffa904 svgShape"></path><path fill="#bac919" d="M740.07 733.725h36.792v313.135H740.07z" transform="rotate(180 758.466 890.293)" class="colorbac919 svgShape"></path><path fill="#ffa904" d="M595.169 720.458h144.902v13.268H595.169z" class="colorffa904 svgShape"></path><path fill="#004081" d="M740.07 720.458h36.792v13.268H740.07z" transform="rotate(180 758.466 727.092)" class="color004081 svgShape"></path><path fill="#004081" d="M621.462 762.454h92.313v13.517h-92.313zM621.462 797.048h92.313v13.517h-92.313zM621.462 831.641h92.313v13.517h-92.313zM621.462 866.236h92.313v13.517h-92.313zM621.462 900.831h92.313v13.517h-92.313zM621.462 935.426h92.313v13.517h-92.313zM621.462 970.02h92.313v13.517h-92.313z" class="color004081 svgShape"></path><path fill="#bac919" d="M452.017 659.081v480.921H350.919V720.845l.973-.596 1.931-1.177 20.357-12.432 3.14-1.93 22.288-13.609 3.139-1.915 22.288-13.624 3.139-1.915 23.843-14.566z" class="colorbac919 svgShape"></path><path fill="#004081" d="M452.017 659.081h73.394v480.921h-73.394z" class="color004081 svgShape"></path><path fill="#ffffff" d="M377.32 704.71v435.292h-3.14V706.64l3.14-1.93zM402.747 689.186v450.816h-3.139V691.101l3.139-1.915zM428.174 673.647v466.355h-3.139v-464.44l3.139-1.915z" class="colorfff svgShape"></path><path fill="#ffa904" d="M451.091 719.072h74.32v3.139h-74.32zM451.091 772.391h74.32v3.139h-74.32zM451.091 825.726h74.32v3.139h-74.32zM451.091 879.061h74.32v3.139h-74.32zM451.091 932.38h74.32v3.139h-74.32z" class="colorffa904 svgShape"></path><path fill="#ffa904" d="M475.875 659.081h3.139v480.921h-3.139zM501.302 659.081h3.139v480.921h-3.139z" class="colorffa904 svgShape"></path><path fill="#ffffff" d="M452.017 719.072v3.139H350.919v-1.366l.982-.596 1.949-1.177h98.167zM350.919 772.391h101.098v3.139H350.919zM350.919 825.726h101.098v3.139H350.919zM350.919 879.061h101.098v3.139H350.919zM350.919 932.38h101.098v3.139H350.919z" class="colorfff svgShape"></path><path fill="#ffa904" d="M451.091 987.143h74.32v3.139h-74.32zM451.091 1040.462h74.32v3.139h-74.32z" class="colorffa904 svgShape"></path><path fill="#ffffff" d="M350.919 987.143h101.098v3.139H350.919zM350.919 1040.462h101.098v3.139H350.919z" class="colorfff svgShape"></path><path fill="#00b1e1" d="M223.559 867.137h138.225v298.706H223.559z" class="color00b1e1 svgShape"></path><path fill="#ffc503" d="M307.958 867.137h53.825v298.706h-53.825z" class="colorffc503 svgShape"></path><path fill="none" stroke="#fff" stroke-miterlimit="10" stroke-width="7.368" d="M323.462 905.176h24.292M323.462 931.88h24.292M323.462 958.585h24.292M323.462 985.29h24.292M323.462 1011.994h24.292M323.462 1038.699h24.292M323.462 1065.403h24.292M323.462 1092.108h24.292M323.462 1118.812h24.292M323.462 1145.517h24.292M244.957 905.176h44.031M244.957 931.88h44.031M244.957 958.585h44.031M244.957 1145.517h44.031" class="colorStrokefff svgStroke"></path><path fill="#ffa904" d="M1042.458 1106.462H941.099V758.208l101.359-35.481v383.735z" class="colorffa904 svgShape"></path><path fill="#f75800" d="M1116.031 1106.462h-73.573V722.727l73.573 51.666v332.069z" class="colorf75800 svgShape"></path><path fill="none" stroke="#fff" stroke-linecap="round" stroke-miterlimit="10" stroke-width="3.902" d="M1056.167 772.846v288.683M1072.114 783.252v278.277M1088.061 793.658v267.871M1104.008 804.064v257.465M959.885 791.843v269.686M975.832 787.094v274.435M991.779 782.344v279.185M1007.726 777.595v283.934M1023.673 772.846v288.683" class="colorStrokefff svgStroke"></path><path fill="#ffa904" d="M518.105 1368.981H408.952v-421.46l109.153-58.915v480.375z" class="colorffa904 svgShape"></path><path fill="#004081" d="M518.105 888.606h79.231v480.375h-79.231z" class="color004081 svgShape"></path><path fill="none" stroke="#fff" stroke-miterlimit="10" stroke-width="7.943" d="M426.435 971.25h76.709M426.435 994.914h76.709M426.435 1018.577h76.709M426.435 1042.241h76.709M426.435 1065.904h76.709M426.435 1089.568h76.709M426.435 1113.231h76.709M426.435 1136.895h76.709" class="colorStrokefff svgStroke"></path><path fill="#00b1e1" d="M531.714 967.132h55.64v8.235h-55.64zM531.714 990.796h55.64v8.235h-55.64zM531.714 1014.459h55.64v8.235h-55.64zM531.714 1038.124h55.64v8.235h-55.64zM531.714 1061.787h55.64v8.235h-55.64zM531.714 1085.451h55.64v8.235h-55.64zM531.714 1109.114h55.64v8.235h-55.64zM531.714 1132.777h55.64v8.235h-55.64zM531.714 1156.441h55.64v8.235h-55.64zM531.714 1180.104h55.64v8.235h-55.64zM531.714 1203.767h55.64v8.235h-55.64z" class="color00b1e1 svgShape"></path><path fill="#004081" d="M923.363 934.464v-39.57h-18.96v-47.045h-60.746v47.045h-18.959v39.57h-18.124v291.548h134.913V934.464h-18.124z" class="color004081 svgShape"></path><path fill="#00c6e3" d="M892.881 934.464v-39.57h-18.96v-47.045h-60.746v47.045h-18.96v39.57h-18.124v291.548h134.913V934.464h-18.123z" class="color00c6e3 svgShape"></path><path fill="none" stroke="#fff" stroke-miterlimit="10" stroke-width="6.357" d="M804.042 950.535v255.25M830.379 950.535v255.25M856.716 950.535v255.25M883.054 950.535v255.25" class="colorStrokefff svgStroke"></path><path fill="#ffffff" d="M584.105 1075.349h155.999v293.632H584.105z" class="colorfff svgShape"></path><path fill="#f75800" d="m584.105 1075.349 77.861-77.861h155.723l-77.585 77.861H584.105z" class="colorf75800 svgShape"></path><path fill="#004081" d="M817.689 997.488v371.493h-77.585v-295.124l77.585-76.369z" class="color004081 svgShape"></path><path fill="#ffffff" d="M787.918 1095.352h13.364v13.364h-13.364z" transform="rotate(-90 794.6 1102.034)" class="colorfff svgShape"></path><path fill="#ffffff" d="M787.918 1122.137h13.364v13.364h-13.364z" transform="rotate(-90 794.6 1128.82)" class="colorfff svgShape"></path><path fill="#ffffff" d="M787.918 1148.922h13.364v13.364h-13.364z" transform="rotate(-90 794.6 1155.604)" class="colorfff svgShape"></path><path fill="#ffffff" d="M787.918 1175.708h13.364v13.364h-13.364z" transform="rotate(-90 794.6 1182.39)" class="colorfff svgShape"></path><path fill="#ffffff" d="M763.292 1095.352h13.364v13.364h-13.364z" transform="rotate(-90 769.974 1102.034)" class="colorfff svgShape"></path><path fill="#ffffff" d="M763.292 1122.137h13.364v13.364h-13.364z" transform="rotate(-90 769.974 1128.82)" class="colorfff svgShape"></path><path fill="#ffffff" d="M763.292 1148.922h13.364v13.364h-13.364z" transform="rotate(-90 769.974 1155.604)" class="colorfff svgShape"></path><path fill="#ffffff" d="M763.292 1175.708h13.364v13.364h-13.364z" transform="rotate(-90 769.974 1182.39)" class="colorfff svgShape"></path><path fill="#ffa904" d="M604.18 1095.352h12.343v32.103H604.18zM640.314 1095.352h12.343v32.103h-12.343zM676.448 1095.352h12.343v32.103h-12.343zM712.582 1095.352h12.343v32.103h-12.343zM604.18 1154.241h12.343v32.103H604.18zM640.314 1154.241h12.343v32.103h-12.343zM676.448 1154.241h12.343v32.103h-12.343zM712.582 1154.241h12.343v32.103h-12.343z" class="colorffa904 svgShape"></path><path fill="#00b1e1" d="m538.657 1140.912-49.943 49.942h330.211l-49.942-49.942H538.657z" class="color00b1e1 svgShape"></path><path fill="#f75800" d="m538.657 1140.912-49.943 49.942h198.233l-49.942-49.942h-98.348z" class="colorf75800 svgShape"></path><path fill="#ffa904" d="M488.714 1190.854h330.211v198.233H488.714z" class="colorffa904 svgShape"></path><path fill="#004081" d="M686.947 1190.854h131.978v198.233H686.947z" class="color004081 svgShape"></path><path fill="#ffa904" d="m587.831 1160.789-30.993 30.993h61.985l-30.992-30.993z" class="colorffa904 svgShape"></path><path fill="#ffffff" d="M773.442 1241.73h11.809v26.617h-11.809zM749.775 1241.73h11.809v26.617h-11.809zM726.108 1241.73h11.809v26.617h-11.809zM773.442 1290.778h11.809v26.617h-11.809zM749.775 1290.778h11.809v26.617h-11.809zM726.108 1290.778h11.809v26.617h-11.809z" class="colorfff svgShape"></path><path fill="#004081" d="M514.537 1220.922h19.569v19.569h-19.569zM554.792 1220.922h19.569v19.569h-19.569zM595.047 1220.922h19.569v19.569h-19.569zM635.302 1220.922h19.569v19.569h-19.569zM514.537 1258.563h19.569v19.569h-19.569zM554.792 1258.563h19.569v19.569h-19.569zM595.047 1258.563h19.569v19.569h-19.569zM635.302 1258.563h19.569v19.569h-19.569zM514.537 1296.204h19.569v44.74h-19.569zM554.792 1296.204h19.569v44.74h-19.569zM595.047 1296.204h19.569v44.74h-19.569zM635.302 1296.204h19.569v44.74h-19.569z" class="color004081 svgShape"></path><path fill="#ffffff" d="M817.849 1177.977h351.661v211.11H817.849z" class="colorfff svgShape"></path><path fill="#004081" d="M1028.959 1177.977h140.551v211.11h-140.551z" class="color004081 svgShape"></path><path fill="#ffc503" d="M817.849 1177.977h351.661l-105.555-105.555H923.404l-105.555 105.555z" class="colorffc503 svgShape"></path><path fill="#f75800" d="m817.849 1177.977 105.555-105.555 105.555 105.555-199.33.365-11.78-.365z" class="colorf75800 svgShape"></path><path fill="#ffffff" d="M1121.073 1232.158h12.576v28.346h-12.576zM1095.868 1232.158h12.576v28.346h-12.576zM1070.663 1232.158h12.576v28.346h-12.576zM1121.073 1284.392h12.576v28.346h-12.576zM1095.868 1284.392h12.576v28.346h-12.576zM1070.663 1284.392h12.576v28.346h-12.576z" class="colorfff svgShape"></path><path fill="#00c6e3" d="M946.68 1232.158h17.069v28.346H946.68zM912.47 1232.158h17.069v28.346H912.47zM878.26 1232.158h17.069v28.346H878.26zM946.68 1284.392h17.069v28.346H946.68zM912.47 1284.392h17.069v28.346H912.47zM878.26 1284.392h17.069v28.346H878.26z" class="color00c6e3 svgShape"></path><circle cx="919.811" cy="1144.615" r="15.73" fill="#ffffff" class="colorfff svgShape"></circle><path fill="#ffc503" d="M834.298 1251.603c-.413 0-.814.01-1.217.031a29.68 29.68 0 0 0-18.683 7.554 27.171 27.171 0 0 0-2.062 2.02 29.437 29.437 0 0 0-5.833 9.234 24.104 24.104 0 0 0-1.03 3.05 29.565 29.565 0 0 0-1.103 8.039 29.877 29.877 0 0 0 11.986 23.95 29.36 29.36 0 0 0-4.184 3.813 31.44 31.44 0 0 0-1.855 2.216 29.945 29.945 0 0 0 6.039 41.871 30.438 30.438 0 0 0-4.761 4.452 29.707 29.707 0 0 0-1.783 2.298 29.399 29.399 0 0 0-5.256 13.892 29.107 29.107 0 0 0-.186 3.308 29.919 29.919 0 0 0 28.711 29.896c.402.021.804.031 1.216.031.045 0 .087-.003.132-.004v-155.647c-.045 0-.087-.004-.131-.004Z" class="colorffc503 svgShape"></path><path fill="#ffa904" d="M864.225 1329.43a29.72 29.72 0 0 0-5.38-17.106 27.239 27.239 0 0 0-1.772-2.298 29.688 29.688 0 0 0-4.833-4.545 29.943 29.943 0 0 0 11.17-30.896 29.02 29.02 0 0 0-.927-3.143v-.01a29.718 29.718 0 0 0-5.575-9.492 25.41 25.41 0 0 0-1.99-2.092 29.774 29.774 0 0 0-18.951-8.193 30.341 30.341 0 0 0-1.538-.048v155.647c.52-.003 1.035-.019 1.538-.047a29.923 29.923 0 0 0 28.258-29.876c0-.69-.02-1.37-.072-2.04a29.694 29.694 0 0 0-4.813-14.346 27.587 27.587 0 0 0-1.721-2.36 30.27 30.27 0 0 0-5.38-5.204 29.876 29.876 0 0 0 11.986-23.95Z" class="colorffa904 svgShape"></path><path fill="#ffa904" d="m834.988 1381.227-1.907-1.907-21.486-21.487a29.707 29.707 0 0 0-1.783 2.298l23.27 23.27 1.906 1.907.034-.035v-4.08Z" class="colorffa904 svgShape"></path><path fill="#004081" d="M859.34 1360.945a27.587 27.587 0 0 0-1.721-2.36l-21.652 21.662-.945.945v4.081l.945-.944ZM864.153 1375.29a29.661 29.661 0 0 0-.464-3.617l-27.722 27.722-.945.945v4.081l.945-.945Z" class="color004081 svgShape"></path><path fill="#ffa904" d="m834.988 1400.374-1.907-1.906-27.938-27.939a30.11 30.11 0 0 0-.587 3.494l30.432 30.432.034-.034v-4.08Z" class="colorffa904 svgShape"></path><path fill="#004081" d="m834.988 1279.779-1.907-1.907-18.683-18.684a27.171 27.171 0 0 0-2.062 2.02l20.745 20.745 1.907 1.907.034-.034v-4.081Z" class="color004081 svgShape"></path><path fill="#004081" d="M856.908 1261.94a25.41 25.41 0 0 0-1.99-2.092l-18.951 18.952-.945.945v4.08l.945-.944Z" class="color004081 svgShape"></path><path fill="#ffc503" d="M863.41 1274.585a29.02 29.02 0 0 0-.927-3.143l-26.516 26.516-.945.945v4.07l.945-.945Z" class="colorffc503 svgShape"></path><path fill="#004081" d="m834.988 1298.937-1.907-1.907-26.577-26.588a24.104 24.104 0 0 0-1.031 3.05l29.515 29.516.034-.035v-4.07Z" class="color004081 svgShape"></path><path fill="#ffa904" d="m834.988 1332.11-22.816-22.816a31.44 31.44 0 0 0-1.855 2.216l24.671 24.671.034-.034v-4.07Z" class="colorffa904 svgShape"></path><path fill="#004081" d="M858.845 1312.324a27.239 27.239 0 0 0-1.772-2.298l-21.106 21.105-.945.945v4.07l.945-.944Z" class="color004081 svgShape"></path><path fill="#004081" d="M835.967 1251.655v205.38h-2.886v-205.4c.403-.021.804-.032 1.217-.032.566 0 1.123.021 1.669.052Z" class="color004081 svgShape"></path><path fill="#ffc503" d="M1074.198 1325.536a36.61 36.61 0 0 0-.117-5.487 35.735 35.735 0 0 0-50.077-29.128 26.1 26.1 0 0 1-19.046 1.222 21.137 21.137 0 0 0-27.781 17.484l-.03.255a21.566 21.566 0 0 1-10.143 16.465 45.216 45.216 0 0 0 37.54 81.75c11.032-3.762 22.932-3.529 34.255-.764a37.68 37.68 0 0 0 41.213-56.074c-4.656-7.694-6.302-16.743-5.814-25.723Z" class="colorffc503 svgShape"></path><path fill="none" stroke="#3f3c3e" stroke-miterlimit="10" stroke-width="4.389" d="M1020.284 1337.272v112.846M1020.284 1361.074l13.51-13.51M1006.115 1365.262l13.571 13.572" class="colorStroke3f3c3e svgStroke"></path><path fill="#004081" d="M536.912 1429.636a62.77 62.77 0 0 0-53.038 28.972h5.082a58.832 58.832 0 0 1 95.903 0h5.107a62.887 62.887 0 0 0-53.054-28.972Z" class="color004081 svgShape"></path><path fill="#004081" d="M536.912 1442.178a50.519 50.519 0 0 0-37.258 16.43h5.957a46.233 46.233 0 0 1 62.596 0h5.983a50.376 50.376 0 0 0-37.278-16.43Z" class="color004081 svgShape"></path><path fill="#004081" d="M536.912 1454.722a37.981 37.981 0 0 0-16.692 3.886h33.383a37.905 37.905 0 0 0-16.691-3.886Z" class="color004081 svgShape"></path><path fill="#bac919" d="M0 1071.656h171.612v245.738H0z" class="colorbac919 svgShape"></path><path fill="#f75800" d="m0 1071.656 85.654-85.654h171.308l-85.35 85.654H0z" class="colorf75800 svgShape"></path><path fill="#ffa904" d="m256.962 986.002-85.35 84.013v247.38h85.35V986.002z" class="colorffa904 svgShape"></path><path fill="#004081" d="M22.084 1093.661h13.578v35.317H22.084zM61.834 1093.661h13.578v35.317H61.834zM101.585 1093.661h13.578v35.317h-13.578zM141.335 1093.661h13.578v35.317h-13.578zM22.084 1158.444h13.578v35.317H22.084zM61.834 1158.444h13.578v35.317H61.834zM101.585 1158.444h13.578v35.317h-13.578zM141.335 1158.444h13.578v35.317h-13.578z" class="color004081 svgShape"></path><path fill="#bac919" d="M777.394 1444.964a24.72 24.72 0 0 0-13.417 3.938 33.832 33.832 0 0 0-48.778-13.194 36.994 36.994 0 0 0-59.08 6.497 28.046 28.046 0 0 0-32.594 22.177h178.113a24.85 24.85 0 0 0-24.244-19.418Z" class="colorbac919 svgShape"></path><path fill="#ffffff" d="m488.714 1165.634-72.488-60.275H262.718l-75.469 60.275h301.465z" class="colorfff svgShape"></path><path fill="#004081" d="M416.226 1105.359H298.169l72.489 60.275h118.056l-72.488-60.275z" class="color004081 svgShape"></path><path fill="#ffffff" d="M187.249 1165.64h301.464v223.447H187.249z" class="colorfff svgShape"></path><path fill="#00b1e1" d="M370.658 1165.64h118.056v223.447H370.658z" class="color00b1e1 svgShape"></path><path fill="#ffa904" d="M217.641 1189.27h11.777v23.036h-11.777zM252.119 1189.27h11.777v23.036h-11.777zM286.597 1189.27h11.777v23.036h-11.777zM321.075 1189.27h11.777v23.036h-11.777zM217.641 1234.813h11.777v23.036h-11.777zM252.119 1234.813h11.777v23.036h-11.777zM286.597 1234.813h11.777v23.036h-11.777zM321.075 1234.813h11.777v23.036h-11.777z" class="colorffa904 svgShape"></path><path fill="#ffffff" d="M0 1302.43h201.72v87.74H0z" class="colorfff svgShape"></path><path fill="#f75800" d="M0 1302.43h80.623v87.74H0z" class="colorf75800 svgShape"></path><path fill="#004081" d="M201.72 1302.431H0l60.549-91.365h80.622l60.549 91.365z" class="color004081 svgShape"></path><path fill="#ffffff" d="m201.72 1302.431-60.549-91.365-60.548 91.365H201.72z" class="colorfff svgShape"></path><path fill="#ffc503" d="M120.4 1340.925v49.246h40.87v-49.246a20.762 20.762 0 0 0-13.837-19.641 19.99 19.99 0 0 0-6.634-1.084 20.585 20.585 0 0 0-20.399 20.725Z" class="colorffc503 svgShape"></path><path fill="#ffa904" d="M133.524 1340.925v49.246h27.746v-49.246a20.762 20.762 0 0 0-13.837-19.641 20.728 20.728 0 0 0-13.91 19.64Z" class="colorffa904 svgShape"></path><path fill="#ffc503" d="M351.05 1299.454c-.045 0-.087-.004-.131-.004-.413 0-.814.01-1.216.03a29.68 29.68 0 0 0-18.684 7.555 27.207 27.207 0 0 0-2.061 2.02 29.437 29.437 0 0 0-5.833 9.233 24.098 24.098 0 0 0-1.03 3.05 29.566 29.566 0 0 0-1.103 8.039 29.877 29.877 0 0 0 11.985 23.95 29.378 29.378 0 0 0-4.184 3.813 31.442 31.442 0 0 0-1.855 2.216 29.864 29.864 0 0 0-5.946 17.921v.284a23.523 23.523 0 0 0 23.638 23.088h6.42Z" class="colorffc503 svgShape"></path><path fill="#ffa904" d="M380.846 1377.277a29.719 29.719 0 0 0-5.38-17.107 27.223 27.223 0 0 0-1.772-2.298 29.692 29.692 0 0 0-4.833-4.545 29.944 29.944 0 0 0 11.17-30.896 29.02 29.02 0 0 0-.927-3.143v-.01a29.715 29.715 0 0 0-5.575-9.492 25.411 25.411 0 0 0-1.989-2.092 29.774 29.774 0 0 0-18.952-8.193 30.578 30.578 0 0 0-1.538-.047v101.195h6.157a23.523 23.523 0 0 0 23.638-23.088l.001-.284Z" class="colorffa904 svgShape"></path><path fill="#3f3c3e" d="m351.61 1327.625-1.907-1.907-18.684-18.683a27.19 27.19 0 0 0-2.061 2.02l20.745 20.744 1.906 1.907.034-.034v-4.081Z" class="color3f3c3e svgShape"></path><path fill="#3f3c3e" d="M373.53 1309.786a25.411 25.411 0 0 0-1.99-2.092l-18.952 18.952-.945.945v4.08l.945-.944Z" class="color3f3c3e svgShape"></path><path fill="#ffc503" d="M380.032 1322.431a29.024 29.024 0 0 0-.928-3.143l-26.516 26.516-.945.945v4.07l.945-.944Z" class="colorffc503 svgShape"></path><path fill="#3f3c3e" d="m351.61 1346.783-1.907-1.907-26.578-26.588a24.103 24.103 0 0 0-1.03 3.05l29.514 29.516.035-.034v-4.071Z" class="color3f3c3e svgShape"></path><path fill="#ffa904" d="m351.61 1379.957-22.817-22.817a31.418 31.418 0 0 0-1.855 2.216l24.671 24.671.035-.034v-4.07Z" class="colorffa904 svgShape"></path><path fill="#3f3c3e" d="M375.466 1360.17a27.239 27.239 0 0 0-1.772-2.298l-21.106 21.105-.944.945v4.071l.944-.945Z" class="color3f3c3e svgShape"></path><path fill="#3f3c3e" d="M352.588 1299.501v151.967h-2.885V1299.48c.402-.021.803-.031 1.216-.031.567 0 1.123.02 1.67.051Z" class="color3f3c3e svgShape"></path><path fill="#00b1e1" d="M244.775 1446.813q-.237 0-.473.006a22.73 22.73 0 0 1-15.603-5.866 25.187 25.187 0 0 0-33.455.081 52.548 52.548 0 0 1-11.358 7.823 19.128 19.128 0 0 0-10.012 12.653h89.496a19.117 19.117 0 0 0-18.595-14.697Z" class="color00b1e1 svgShape"></path><path fill="#004081" d="M454.93 1327.138c-3.758-5.374-5.2-12.126-2.867-18.254a23.877 23.877 0 0 0-5.38-25.283 6.431 6.431 0 0 1 .054-9.099 23.796 23.796 0 0 0 6.85-15.63 24.254 24.254 0 0 0-23.519-25.056 23.91 23.91 0 0 0-17.375 40.744 6.389 6.389 0 0 1 0 9.037 23.875 23.875 0 0 0-5.278 25.56c2.353 5.96.847 12.592-2.86 17.82a30.605 30.605 0 0 0-5.467 20.965 30.768 30.768 0 0 0 61.364-3.25 30.518 30.518 0 0 0-5.522-17.554Z" class="color004081 svgShape"></path><path fill="#004081" d="M427.55 1300.801h4.274v147.272h-4.274z" class="color004081 svgShape"></path></g></svg>