<svg xmlns="http://www.w3.org/2000/svg" fill-rule="evenodd" stroke-linejoin="round" stroke-miterlimit="2" clip-rule="evenodd" viewBox="0 0 3000 3000" width="550" height="550"><path fill="none" d="M0 0h3000v3000H0z"></path><path fill="#f26c07" d="M629.023 893.872s1005.83-225.443 1847.43-76.763l-112.381 740.812s-1604.86 22.927-1634.33 85.156L629.029 893.872Z" class="colorf26c07 svgShape"></path><path fill="#3fbff1" d="M705.951 919.675s1056.66-198.267 1693.57-70.37l-103.022 679.117s-1471.2 21.017-1498.22 78.064l-92.325-686.811Z" class="color3fbff1 svgShape"></path><path fill="#0e1641" d="M326.576 1280.22c-16.296 12.574-36.589 30.75-53.801 53.844-23.981 32.174-41.939 73.767-35.694 122.894 10.101 79.464 84.851 180.426 309.326 292.664a7.88 7.88 0 0 0 7.048-14.096c-216.805-108.403-290.984-203.806-300.74-280.556-5.67-44.6 10.924-82.278 32.696-111.488 20.868-27.998 46.537-48.325 62.772-59.588l19.524 46.558 58.312-107.167-149.719 53.584 50.276 3.351ZM2643.53 1337.41l65.995-31.057-189.772 8.966 122.53 88.162-7.475-51.081c16.509 4.474 51.709 15.381 78.89 33.233 16.814 11.042 30.784 24.578 33.342 41.545 2.585 17.147-6.86 36.798-33.953 60.204-80.276 69.351-308.146 163.419-844.112 286.143a8.406 8.406 0 0 0 3.752 16.387c540.796-123.83 770.35-219.833 851.349-289.809 33.392-28.847 42.773-54.297 39.587-75.431-3.214-21.314-19.615-39.218-40.736-53.09-26.648-17.501-60.524-28.77-79.397-34.172Z" class="color0e1641 svgShape"></path><ellipse cx="1977.69" cy="1073.83" fill="#a1854d" rx="141.384" ry="153.534" class="colora1854d svgShape"></ellipse><path fill="#826936" d="M2111.45 1123.65c4.94-15.621 7.623-32.385 7.623-49.824 0-5.779-.294-11.484-.868-17.095a35.004 35.004 0 0 0-1.341-.026c-18.593 0-33.689 15.096-33.689 33.689 0 16.751 12.252 30.663 28.275 33.256Zm-162.48 100.535.001-.139c0-41.454-33.656-75.11-75.111-75.11-6.309 0-12.438.78-18.298 2.249 19.899 36.941 53.605 64.066 93.408 73Zm37.366 2.892c21.004-1.379 40.777-7.747 58.323-18.024-6.294-5.779-14.684-9.307-23.892-9.307-16.751 0-30.797 11.678-34.431 27.331Z" class="color826936 svgShape"></path><circle cx="1992.05" cy="1093.71" r="13.807" fill="#826936" class="color826936 svgShape"></circle><path fill="#090d30" d="M1852.51 1002.14c.294.053-2.417 6.285-2.788 6.22-15.653-2.755-33.639-5.188-49.21-5.408-9.27-.131-17.659.511-24.094 2.421-3.79 1.125-6.86 2.653-8.839 4.857-2.61 2.908-2.943 6.963-.859 12.414 3.88 10.152 15.49 24.168 37.737 43.513 125.985 109.552 287.046 90.855 324.294 85.378 13.221-1.944 34.155-5.796 48.26-13.323 8.247-4.401 14.263-9.897 13.426-17.554-.59-5.399-4.396-11.539-12.21-18.807-11.081-10.307-29.946-22.427-59.397-36.751-.261-.126-1.049-7.86-.824-7.753 32.431 15.523 52.894 28.639 64.735 39.651 9.417 8.759 13.573 16.434 14.284 22.94 1.115 10.203-5.904 18.257-16.894 24.121-14.744 7.868-36.596 12-50.415 14.033-37.863 5.568-201.543 24.426-329.608-86.934-23.482-20.419-35.483-35.432-39.579-46.148-3.235-8.464-1.935-14.691 2.118-19.207 2.685-2.991 6.742-5.256 11.885-6.783 6.966-2.068 16.039-2.837 26.074-2.695 16.453.233 35.559 2.887 51.904 5.815Z" class="color090d30 svgShape"></path><path fill="#f9f9f9" d="M1509.12 1358.07c12.741 0 23.086 10.344 23.086 23.085 0 12.741-10.345 23.086-23.086 23.086-12.741 0-23.085-10.345-23.085-23.086 0-12.741 10.344-23.085 23.085-23.085Zm678.977 23.085c5.996 0 10.864 4.868 10.864 10.864s-4.868 10.864-10.864 10.864-10.863-4.868-10.863-10.864 4.867-10.864 10.863-10.864Zm-1279.19-13.579c8.993 0 16.295 7.301 16.295 16.295 0 8.994-7.302 16.296-16.295 16.296-8.994 0-16.296-7.302-16.296-16.296s7.302-16.295 16.296-16.295Zm1061.92-9.506c8.244 0 14.937 6.693 14.937 14.938 0 8.244-6.693 14.937-14.937 14.937-8.245 0-14.938-6.693-14.938-14.937 0-8.245 6.693-14.938 14.938-14.938Zm160.238-61.108c7.495 0 13.58 6.085 13.58 13.58 0 7.494-6.085 13.579-13.58 13.579s-13.579-6.085-13.579-13.579c0-7.495 6.084-13.58 13.579-13.58Zm-494.295-62.466c10.493 0 19.011 8.519 19.011 19.012 0 10.492-8.518 19.011-19.011 19.011-10.493 0-19.011-8.519-19.011-19.011 0-10.493 8.518-19.012 19.011-19.012Zm570.341-48.886c10.492 0 19.011 8.519 19.011 19.011 0 10.493-8.519 19.012-19.011 19.012-10.493 0-19.012-8.519-19.012-19.012 0-10.492 8.519-19.011 19.012-19.011Zm-1385.11-42.097c8.244 0 14.937 6.694 14.937 14.938s-6.693 14.937-14.937 14.937-14.938-6.693-14.938-14.937 6.694-14.938 14.938-14.938Zm828.352-40.738c15.739 0 28.517 12.778 28.517 28.517 0 15.739-12.778 28.517-28.517 28.517-15.739 0-28.517-12.778-28.517-28.517 0-15.739 12.778-28.517 28.517-28.517Zm-763.17-81.477c9.743 0 17.653 7.91 17.653 17.653 0 9.743-7.91 17.653-17.653 17.653-9.744 0-17.654-7.91-17.654-17.653 0-9.743 7.91-17.653 17.654-17.653Zm1306.35-85.552c10.493 0 19.011 8.519 19.011 19.012 0 10.492-8.518 19.011-19.011 19.011-10.493 0-19.011-8.519-19.011-19.011 0-10.493 8.518-19.012 19.011-19.012Zm-1363.39-10.863c11.992 0 21.728 9.735 21.728 21.727s-9.736 21.727-21.728 21.727c-11.991 0-21.727-9.735-21.727-21.727s9.736-21.727 21.727-21.727Zm896.25-69.256c8.244 0 14.937 6.693 14.937 14.938 0 8.244-6.693 14.937-14.937 14.937s-14.938-6.693-14.938-14.937c0-8.245 6.694-14.938 14.938-14.938Z" class="colorf9f9f9 svgShape"></path><path fill="#0b133e" d="M998.535 565.02c38.223 0 69.255 31.032 69.255 69.256 0 38.223-31.032 69.255-69.255 69.255s-69.256-31.032-69.256-69.255c0-38.224 31.033-69.256 69.256-69.256Zm475.284 80.119c13.49 0 24.443 10.953 24.443 24.444 0 13.49-10.953 24.443-24.443 24.443-13.491 0-24.444-10.953-24.444-24.443 0-13.491 10.953-24.444 24.444-24.444Zm885.385-95.056c26.982 0 48.887 21.905 48.887 48.886s-21.905 48.886-48.887 48.886c-26.981 0-48.886-21.905-48.886-48.886s21.905-48.886 48.886-48.886ZM1238.68 1259.83c-23.351 11.207-47.616 17.85-71.885 17.85-124.198 0-285.17-5.195-232.792-226.973 15.75-66.689 260.107-187.84 382.167-164.894 54.759 10.294 85.492 21.73 101.715 34.568l1.102-1.589 178.474 13.579 21.339 19.4-40.739 89.237-169.604 27.503c-5.229 15.232-13.387 32.301-23.917 49.952l168.302 11.782-56.258 108.636-254.131 21.339-3.773-.39Z" class="color0b133e svgShape"></path><path fill="#071770" d="M1221.1 1259.83c-22.048 11.207-44.958 17.85-67.872 17.85-117.265 0-269.249-5.195-219.795-226.973 14.871-66.689 245.585-187.84 360.831-164.894 51.701 10.294 80.718 21.73 96.036 34.568l1.04-1.589 168.51 13.579 20.148 19.4-16.116 56.956-167.584 18.813c-4.938 15.232-27.539 90.654-37.481 108.305l158.906-5.6-68.016 90.012-232.494 10.166 3.887 29.407Z" class="color071770 svgShape"></path><ellipse cx="1169.22" cy="1263.13" fill="#0b133e" rx="72.748" ry="58.198" class="color0b133e svgShape"></ellipse><path fill="#0b133e" d="m1138.4 1024.19 188.698-126.392a4.967 4.967 0 0 1 5.527 8.253l-191.089 127.993 58.463 183.695c.513 1.614-.367 3.68-1.966 4.615-1.6.936-3.313.386-3.826-1.227l-58.333-183.29-198.064 132.665a4.966 4.966 0 1 1-5.527-8.252l200.454-134.267-27.49-86.379c-.514-1.613.366-3.68 1.966-4.615 1.599-.936 3.312-.386 3.825 1.227l27.362 85.974Z" class="color0b133e svgShape"></path><path fill="#dfe4fe" d="m1260.13 1020.47-24.831 82.44 166.866 24.831 28.804-101.311-170.839-5.96Z" class="colordfe4fe svgShape"></path><ellipse cx="1129.48" cy="1039.2" fill="#dfe4fe" rx="50.923" ry="37.206" class="colordfe4fe svgShape"></ellipse><path fill="#ffc100" d="m841.172 2173.28 194.164 5.882s20.026-.523 38.904 66.461c18.879 66.983 26.839 126.193 26.839 126.193l-175.14 77.781-84.767-276.317ZM1416.34 2117.62l174.405 5.092s18.118-.51 29.295 64.667c11.176 65.177 13.18 122.789 13.18 122.789l-165.19 75.683-51.69-268.231ZM1870.64 2006.02l144.088-2.131s14.503-.273 25.547 34.64c11.045 34.913 10.941 74.683 10.941 74.683l-141.011 50.499-39.565-157.691Z" class="colorffc100 svgShape"></path><path fill="#948988" d="m1854.41 1948.97 126.154-9.946s30.595-7.286 37.278 18.089 23.812 82.64 23.812 82.64l-46.037 18.751-11.319-75.387s-4.691-19.556-25.22-15.087c-20.53 4.47-95.621 12.798-95.621 12.798l-9.047-31.858Z" class="color948988 svgShape"></path><path fill="#ffc100" d="M1621.34 2163.91s-209.296-412.656-107.67-415.944c101.626-3.288 260.028-39.457 285.763 19.728 25.736 59.186 106.932 368.065 110.774 396.014l-288.867.202Z" class="colorffc100 svgShape"></path><path fill="#ffc100" d="m1592.05 2104.17 301.564-10.601 147.694-53.823 9.908 73.395-141.038 50.561h-288.631l-29.497-59.532Z" class="colorffc100 svgShape"></path><path fill="#1b1b1b" d="m1592.14 2106.67 301.563-10.601c.263-.01.522-.06.768-.15l147.695-53.823a2.499 2.499 0 1 0-1.712-4.697l-147.322 53.688-301.168 10.587a2.5 2.5 0 0 0 .176 4.996Z" class="color1b1b1b svgShape"></path><path fill="#040f33" d="M735.555 1768.18s-155.52-4.522-163.993 32.912c-1.726 4.252 29.487 19.703 92.979 7.462 23.076-4.449 55.554-20.115 71.014-40.374Z" class="color040f33 svgShape"></path><path fill="#f99184" d="M714.927 1699.92s7.862 59.228 25.391 73.961c17.528 14.733-122.891 65.403-152.73 40.484 46.127-21.238-1.02-62.017-32.81-140.475-21.376-52.752 126.226-75.094 160.149 26.03Z" class="colorf99184 svgShape"></path><path fill="#3fbff1" d="M775.308 1790.84s88.107-14.866 146.508 127.295c58.401 142.161 106.775 267.445 106.775 267.445s-44.89 120.596-236.818 148.895c0 0-153.85 14.076-190.25-44.649 0 0-60.294-349.472-19.199-427.359 17.633-33.421 110.569-40.403 192.984-71.627Z" class="color3fbff1 svgShape"></path><path fill="#0153bf" d="M774.732 1790.06s-4.024-28.256-13.225-28.495c-9.201-.239-24.584 4.959-24.584 4.959s-36.43 35.116-85.017 41.455c-48.587 6.339-68.546 2.845-75.877-4.741 0 0-23.807-18.09-7.247 47.601 13.012 23.864 37.617 43.679 107.233 16.082 33.27-13.189 103.299-44.563 98.717-76.861ZM984.952 1888.25s-111.042-69.997-141.241-78.766c-30.199-8.769-41.198-10.072-66.222 19.065-13.549 15.777-11.047 81.566 11.558 124.744 26.515 50.644 197.613 169.872 254.944 91.172 57.332-78.699-59.039-156.215-59.039-156.215Z" class="color0153bf svgShape"></path><path fill="#f99184" d="M737.46 1457.54c35.649 29.372 154.735 283.253-28.958 291.668-183.693 8.415-203.518-129.913-218.094-171.008-24.154-68.099 117.85-227.11 247.052-120.66Z" class="colorf99184 svgShape"></path><path fill="#311c19" d="M755.505 1500.81s36.485-26.146 38.248-58.629c1.764-32.484-39.166-50.611-64.879-34.535 0 0-36.755-108.052-161.205-27.726 0 0-142.074 9.576-90.502 64.145 0 0-106.654 89.062-16.921 116.009 0 0 3.18 48.408 54.964 96.889 0 0 33.245 53.973 55.989 62.518 22.745 8.545 65.994-28.581 80.108-40.235 14.113-11.654 22.646-59.514 24.786-73.96 0 0-23.591-74.424-9.382-90.73 14.209-16.306 36.397-14.885 47.439 11.949 11.042 26.834 14.818 31.127 14.818 31.127s15.125-14.4 26.537-56.822Z" class="color311c19 svgShape"></path><path fill="#1b1b1b" d="M686.269 1621.39s4.222 36.62 16.471 63.576c3.993 8.787 8.825 16.545 14.697 21.557 5.572 4.755 12.092 6.958 19.708 4.95a1.917 1.917 0 1 1 .978 3.708c-13.249 3.493-23.765-3.703-31.85-15.783-17.889-26.727-23.814-77.568-23.814-77.568a1.918 1.918 0 0 1 3.81-.44Z" class="color1b1b1b svgShape"></path><path fill="#3f3f3f" d="M734.756 1440.09s17.337 27.499 8.256 76.649a1.102 1.102 0 0 1-2.167-.4c8.894-48.133-7.955-75.077-7.955-75.077a1.102 1.102 0 0 1 1.866-1.172ZM464.413 1557.75s22.635-2.262 39.385-7.688a.981.981 0 1 1 .605 1.868c-16.925 5.483-39.794 7.774-39.794 7.774a.981.981 0 1 1-.196-1.954Z" class="color3f3f3f svgShape"></path><path fill="#f02b06" d="M1517.55 1861.44c61.23-3.784 166.412-55.828 201.411-106.336 4.762 73.449 15.07 143.598 26.269 209.371-44.832 56.297-86.237 69.749-122.983 44.229-28.436-52.752-63.468-101.765-104.697-147.264Z" class="colorf02b06 svgShape"></path><path fill="#ffffff" d="m1580.87 1856.53 84.714 147.357a3.254 3.254 0 0 1-5.644 3.24l-84.714-147.358a3.25 3.25 0 0 1 1.202-4.438 3.255 3.255 0 0 1 4.442 1.199Zm55.747-27.519 64.454 166.426a3.255 3.255 0 0 1-6.07 2.349l-64.454-166.427a3.255 3.255 0 0 1 6.07-2.348Zm48.635-31.322 46.321 174.034a3.252 3.252 0 0 1-2.309 3.978 3.252 3.252 0 0 1-3.98-2.304l-46.321-174.034a3.252 3.252 0 0 1 2.309-3.978 3.252 3.252 0 0 1 3.98 2.304ZM1579.97 1750.64c-61.206 31.261-102.45 71.794-92.044 90.458 10.406 18.663 68.547 8.434 129.753-22.827 61.207-31.262 102.45-71.795 92.044-90.458-10.406-18.663-68.546-8.435-129.753 22.827Z" class="colorfff svgShape"></path><path d="M1580.2 1751.09c-42.741 21.83-75.737 48.173-88.119 68.412-5.199 8.497-6.766 15.88-3.715 21.352a.504.504 0 1 1-.88.491c-3.192-5.726-1.705-13.477 3.735-22.369 12.443-20.337 45.571-46.846 88.52-68.783a.504.504 0 0 1 .459.897Z" fill="#000000" class="color000 svgShape"></path><path d="M1709.29 1728.06c-3.056-5.482-10.348-8.353-20.637-8.951-24.461-1.421-65.701 10.149-108.446 31.981a.503.503 0 1 1-.459-.897c42.944-21.934 84.388-33.518 108.964-32.089 10.727.623 18.271 3.75 21.458 9.465a.504.504 0 1 1-.88.491Z" fill="#000000" class="color000 svgShape"></path><path fill="#1f1f1f" d="m1670.09 1781.93-.773-1.572a.652.652 0 0 1 .001-.545l1.124-2.671-2.634-2.732-4.316 2.337c-.262.142-.562.176-.805.093a.592.592 0 0 1-.419-.514l-.521-6.182-4.438-.104-2.51 3.88a1.147 1.147 0 0 1-.836.5c-.334.032-.62-.105-.738-.352l-2.116-4.425-8.929 3.448-1.502 3.437c-.125.285-.411.518-.742.602-.33.084-.649.005-.825-.204l-2.376-2.825-4.644 1.527-1.191 3.116c-.112.291-.394.536-.729.63-.335.094-.663.021-.846-.189l-2.859-3.275-6.445 2.16-2.199 4.317a1.12 1.12 0 0 1-.621.525c-.271.096-.553.082-.76-.038l-4.144-2.385-5.665 3.91 2.929 4.904c.174.291.062.692-.269.965-.33.273-.79.344-1.105.171l-4.032-2.215-6.128 5.369.739 3.6c.059.288-.097.616-.396.833-.299.216-.683.279-.975.16l-4.354-1.781-7.11 5.084 1.13 3.817c.074.253-.026.55-.261.778-.236.227-.57.349-.875.318l-5.927-.609-8.143 7.015 2.275 2.704c.212.252.168.636-.106.934-.274.299-.71.438-1.062.338l-4.468-1.26-4.248 4.679 2.707 3.42c.171.217.163.526-.02.8a1.153 1.153 0 0 1-.844.488l-2.876.224-3.397 3.783 3.075 2.143c.27.188.328.536.144.86a1.143 1.143 0 0 1-.948.55l-4.127.037-2.261 6.113 3.883 2.528c.349.227.357.703.017 1.062-.339.36-.898.467-1.247.239l-4.282-2.787c-.244-.158-.33-.447-.221-.742l2.688-7.268c.142-.384.574-.674 1.009-.678l2.095-.019-1.67-1.164c-.327-.227-.335-.68-.019-1.031l4.265-4.75c.192-.214.473-.353.755-.375l1.552-.121-2.132-2.695c-.199-.251-.153-.624.112-.916l5.16-5.684c.274-.301.713-.442 1.067-.342l2.136.602-.925-1.1c-.237-.282-.152-.722.198-1.024l9.13-7.865c.233-.201.545-.305.828-.275l4.876.5-.907-3.068c-.088-.298.068-.655.389-.884l8.14-5.82c.298-.213.679-.274.969-.156l3.112 1.273-.476-2.321c-.053-.258.066-.55.312-.766l7.097-6.218c.33-.29.806-.371 1.13-.193l1.537.845-1.579-2.645c-.189-.316-.039-.758.348-1.025l6.899-4.763c.33-.228.75-.27 1.038-.104l3.752 2.16 1.889-3.709c.122-.24.359-.437.638-.53l7.468-2.503c.352-.117.707-.05.9.172l2.201 2.521.765-2.001c.106-.277.366-.512.681-.616l5.74-1.887c.354-.117.711-.045.901.182l1.774 2.109 1.022-2.34c.107-.244.334-.453.611-.559l10.127-3.91c.434-.168.877-.047 1.034.281l1.762 3.686 1.901-2.937c.201-.31.584-.513.952-.505l5.685.133c.375.009.649.235.676.559l.479 5.689 3.835-2.076c.383-.208.827-.179 1.066.069l3.316 3.439c.17.176.208.434.101.688l-1.172 2.784.65 1.321c.175.357-.051.834-.506 1.066-.454.232-.965.13-1.141-.227Zm5.65-7.849-.977-2.054a.86.86 0 0 1-.007-.696l1.348-3.348-3.291-3.643-5.289 2.735c-.321.166-.691.193-.992.073a.812.812 0 0 1-.525-.682l-.733-7.929-5.476-.39-3.039 4.812c-.216.341-.613.57-1.024.591-.412.021-.767-.17-.916-.492l-2.676-5.777-10.963 3.887-1.802 4.306c-.15.357-.5.637-.906.725-.407.088-.801-.031-1.021-.308l-2.972-3.747-5.707 1.682-1.423 3.912c-.133.366-.479.662-.89.763-.412.1-.817-.012-1.046-.29l-3.576-4.351-7.918 2.386-2.649 5.389a1.284 1.284 0 0 1-.758.635c-.333.106-.68.072-.938-.092l-5.148-3.289-6.929 4.668 3.685 6.436c.219.381.087.888-.317 1.217-.403.33-.97.394-1.361.155l-5.007-3.064-7.48 6.505.965 4.643c.077.371-.11.781-.476 1.04-.366.26-.838.318-1.2.149l-5.397-2.528-8.695 6.084 1.449 4.943c.096.327-.022.701-.31.978a1.301 1.301 0 0 1-1.074.356l-7.321-1.121-9.94 8.49 2.846 3.588c.265.334.217.822-.117 1.187-.333.366-.87.518-1.306.371l-5.53-1.869-5.17 5.732 3.389 4.527c.214.286.209.681-.013 1.02a1.313 1.313 0 0 1-1.033.575l-3.544.12-4.134 4.636 3.825 2.916c.335.256.412.705.189 1.108a1.302 1.302 0 0 1-1.161.647l-5.09-.191-2.698 7.68 4.827 3.454c.434.311.451.92.037 1.359-.414.44-1.101.545-1.536.234l-5.323-3.81c-.303-.217-.414-.591-.283-.961l3.208-9.13c.169-.483.698-.829 1.234-.809l2.584.097-2.077-1.584c-.406-.309-.423-.888-.039-1.319l5.191-5.821a1.32 1.32 0 0 1 .926-.436l1.913-.065-2.67-3.566c-.249-.333-.198-.807.125-1.165l6.28-6.963c.333-.369.873-.524 1.311-.376l2.644.894-1.157-1.459c-.297-.374-.198-.932.229-1.297l11.147-9.521a1.291 1.291 0 0 1 1.016-.303l6.023.922-1.165-3.972c-.113-.387.075-.833.468-1.108l9.954-6.964c.365-.256.834-.312 1.193-.144l3.858 1.807-.622-2.993c-.069-.332.074-.699.374-.96l8.662-7.535c.404-.351.989-.426 1.392-.18l1.908 1.168-1.988-3.471c-.237-.415-.058-.971.415-1.29l8.44-5.686c.404-.271.921-.301 1.278-.072l4.661 2.977 2.275-4.629c.147-.3.437-.538.779-.641l9.176-2.765c.432-.13.871-.022 1.113.272l2.753 3.349.913-2.513c.127-.347.445-.633.831-.747l7.053-2.079c.435-.128.876-.016 1.114.285l2.219 2.797 1.226-2.93c.129-.306.406-.559.746-.679l12.435-4.409c.532-.189 1.08-.009 1.279.42l2.229 4.811 2.301-3.642a1.305 1.305 0 0 1 1.167-.59l7.015.5c.463.033.804.337.842.753l.675 7.297 4.7-2.431c.469-.243 1.018-.18 1.317.15l4.141 4.586c.212.235.262.567.134.886l-1.404 3.488.821 1.727c.222.466-.05 1.062-.608 1.332-.557.269-1.189.11-1.411-.356Zm-87.178-19.456 5.392-3.537c.493-.324 1.131-.332 1.575-.019l5.794 4.074 2.738-5.783c.177-.374.531-.662.951-.774l11.279-3c.53-.141 1.073.021 1.376.411l3.446 4.439 1.09-3.157c.15-.437.538-.783 1.014-.907l8.669-2.248c.535-.138 1.08.031 1.378.428l2.779 3.704 1.47-3.673c.153-.384.491-.691.908-.825l15.275-4.913c.654-.21 1.333.052 1.584.611l2.821 6.277 2.784-4.521c.295-.478.87-.754 1.432-.686l8.66 1.045c.572.069.997.479 1.05 1.011l.941 9.363 5.762-2.833c.575-.283 1.253-.172 1.626.268l5.177 6.1c.265.312.332.739.178 1.139l-1.68 4.376 1.039 2.254c.28.608-.047 1.354-.73 1.667-.684.312-1.466.071-1.746-.537l-1.236-2.681a1.139 1.139 0 0 1-.019-.89l1.613-4.199-4.114-4.846-6.483 3.188c-.395.194-.85.207-1.223.035a1.108 1.108 0 0 1-.657-.901l-1.023-10.173-6.761-.816-3.678 5.972c-.26.423-.746.693-1.254.696-.507.003-.948-.262-1.137-.683l-3.387-7.535-13.466 4.331-2.159 5.397c-.179.447-.606.785-1.107.874-.5.089-.988-.086-1.263-.453l-3.723-4.96-7.015 1.819-1.697 4.915c-.159.46-.58.819-1.086.923-.507.105-1.009-.062-1.295-.43l-4.475-5.767-9.733 2.59-3.188 6.732a1.47 1.47 0 0 1-.925.767c-.41.117-.839.053-1.159-.172l-6.398-4.501-4.846 3.18.222.423c.326.619.158 1.382-.403 1.834a1.582 1.582 0 0 1-1.93.044l-.65-.49-.873.573 4.643 8.437c.274.5.119 1.139-.374 1.537-.493.398-1.19.447-1.677.118l-6.221-4.205-9.131 7.879 1.259 5.987c.101.48-.124.992-.572 1.303-.447.31-1.029.357-1.478.119l-6.695-3.542-10.636 7.269 1.861 6.4c.124.424-.017.895-.368 1.232-.35.338-.855.488-1.319.392l-9.048-1.856-12.136 10.272 3.563 4.749c.333.443.281 1.063-.125 1.511-.407.448-1.066.611-1.606.397l-6.85-2.708-6.292 7.024 4.248 5.981c.268.378.268.883-.001 1.303-.269.419-.76.681-1.267.675l-4.369-.053-5.032 5.685 4.762 3.948c.418.346.519.924.25 1.426a1.495 1.495 0 0 1-1.423.76l-6.281-.539-3.215 9.656 6.006 4.694c.54.422.57 1.2.066 1.738s-1.351.632-1.891.209l-6.624-5.176a1.108 1.108 0 0 1-.363-1.245l3.822-11.48c.202-.607.849-1.019 1.511-.962l3.188.274-2.585-2.144c-.506-.419-.535-1.159-.068-1.687l6.317-7.138a1.51 1.51 0 0 1 1.137-.503l2.358.028-3.346-4.712c-.313-.439-.257-1.042.136-1.48l7.645-8.533a1.48 1.48 0 0 1 .394-.312 1.57 1.57 0 0 1-.634-.143l-7.94-3.676-7.124 8.111 5 7.475c.316.472.325 1.082.022 1.573a1.581 1.581 0 0 1-1.447.74l-5.035-.322-5.695 6.569 5.556 5.049c.488.443.615 1.147.314 1.737-.301.59-.96.928-1.626.834l-7.246-1.023-3.532 11.473 7.002 6.024c.631.542.679 1.484.108 2.103-.571.62-1.545.683-2.175.141l-7.723-6.644a1.44 1.44 0 0 1-.441-1.525l4.199-13.639c.222-.721.959-1.18 1.723-1.072l3.679.519-3.017-2.742a1.453 1.453 0 0 1-.108-2.042l7.15-8.247a1.59 1.59 0 0 1 1.301-.54l2.717.173-3.939-5.889a1.457 1.457 0 0 1 .131-1.78l8.655-9.853a1.59 1.59 0 0 1 1.85-.393l3.795 1.758-1.704-2.419c-.437-.62-.319-1.467.275-1.969l15.473-13.108a1.594 1.594 0 0 1 1.434-.323l8.603 2.285-1.815-6.3a1.49 1.49 0 0 1 .62-1.644l13.88-9.33a1.585 1.585 0 0 1 1.692-.05l5.558 3.342-1.004-4.711a1.484 1.484 0 0 1 .493-1.43l12.02-10.395a1.58 1.58 0 0 1 1.972-.079l2.761 2.076-2.966-5.644c-.354-.675-.122-1.508.539-1.932l11.777-7.573a1.577 1.577 0 0 1 1.815.071l6.746 5.264 3.052-6.823c.197-.441.6-.768 1.082-.878l12.941-2.957a1.542 1.542 0 0 1 1.593.578l4.048 5.566 1.2-3.75a1.555 1.555 0 0 1 1.152-1.034l9.948-2.202c.614-.136 1.245.1 1.595.598l3.268 4.637 1.627-4.349c.17-.454.555-.805 1.033-.942l17.51-5.03c.749-.215 1.536.141 1.835.831l3.362 7.748 3.128-5.295c.33-.56.989-.859 1.636-.744l9.996 1.775c.66.117 1.157.636 1.228 1.283l1.251 11.364 6.588-3.082c.658-.307 1.44-.132 1.878.421l6.073 7.673c.31.393.395.913.225 1.387l-1.858 5.185 1.237 2.784c.334.751-.029 1.633-.811 1.97-.782.336-1.687 0-2.021-.752l-1.472-3.31a1.445 1.445 0 0 1-.037-1.076l1.783-4.977-4.825-6.096-7.413 3.467a1.58 1.58 0 0 1-1.408-.03 1.457 1.457 0 0 1-.774-1.127l-1.358-12.348-7.804-1.385-4.131 6.995a1.582 1.582 0 0 1-1.433.766 1.505 1.505 0 0 1-1.322-.891l-4.036-9.302-15.437 4.434-2.391 6.391c-.198.53-.685.913-1.26.991a1.538 1.538 0 0 1-1.464-.622l-4.377-6.211-8.049 1.781-1.868 5.837a1.558 1.558 0 0 1-1.235 1.05 1.538 1.538 0 0 1-1.499-.596l-5.259-7.23-11.167 2.552-3.552 7.943a1.563 1.563 0 0 1-1.053.871 1.56 1.56 0 0 1-1.337-.276l-7.452-5.814-9.67 6.217 4.138 7.876Zm1.842 65.472-10.145 1.097-.627 5.165 5.048-.799c.517-.082.998.257 1.073.756.076.499-.282.97-.799 1.052l-6.269.992a.953.953 0 0 1-.796-.236.887.887 0 0 1-.28-.759l.86-7.09a.952.952 0 0 1 .851-.819l10.906-1.18c.52-.056.982.306 1.031.809.049.502-.333.956-.853 1.012Zm16.948-9.63-3.206-4.992-5.333 3.097-.358 6.867c-.026.505-.471.902-.993.885a.91.91 0 0 1-.897-.946l.384-7.362a.934.934 0 0 1 .469-.754l6.574-3.818c.444-.257 1.013-.129 1.282.29l3.69 5.746a.908.908 0 0 1-.31 1.266c-.445.272-1.028.147-1.302-.279Zm16.148-12.828-3.97-5.059-7.079 4.598 1.355 4.662c.141.485-.153.995-.656 1.14-.503.145-1.025-.13-1.166-.615l-1.542-5.306a.915.915 0 0 1 .394-1.02l8.401-5.457a.96.96 0 0 1 1.275.195l4.502 5.738a.901.901 0 0 1-.189 1.285.961.961 0 0 1-1.325-.161Zm22.851-7.724-.042-5.508-9.655 2.435-.38 5.718c-.034.506-.484.896-1.005.872a.907.907 0 0 1-.883-.958l.425-6.391a.944.944 0 0 1 .72-.843l11.492-2.898a.96.96 0 0 1 .805.154.89.89 0 0 1 .364.71l.051 6.663c.004.506-.416.926-.939.939-.522.012-.949-.388-.953-.893Zm-61.48-32.868-1.244.816c-.579.38-.792 1.08-.493 1.624l2.504 4.551-2.371-1.603c-.501-.339-1.222-.276-1.715.149l-10.574 9.125c-.366.316-.537.777-.447 1.206l.812 3.86-4.785-2.532c-.446-.236-1.024-.191-1.471.114l-12.176 8.321c-.48.329-.705.888-.56 1.389l1.496 5.143-7.443-1.528a1.496 1.496 0 0 0-1.25.329l-13.609 11.519c-.522.442-.635 1.149-.263 1.644l1.449 1.931-3.275-1.294a1.353 1.353 0 0 0-.448-.093c.163-.086.313-.201.44-.343.46-.517.508-1.263.118-1.817l-4.191-5.947 13.8-11.689 10.457 2.778a1.593 1.593 0 0 0 1.513-.395c.397-.387.551-.948.402-1.467l-2.259-7.84 12.125-8.15 7.775 4.674a1.582 1.582 0 0 0 1.702-.057c.509-.348.76-.954.635-1.539l-1.557-7.306 10.379-8.976 4.524 3.403Z" class="color1f1f1f svgShape"></path><path fill="#941700" d="M1705.51 1723.27c1.81 1.259 3.228 2.77 4.215 4.541 10.406 18.663-30.837 59.196-92.044 90.458-61.206 31.261-119.347 41.49-129.753 22.827l-.08-.146c-.867 4.087-.512 7.725 1.196 10.789 10.832 19.428 71.986 8.33 136.497-24.62 64.511-32.949 108.107-75.353 97.274-94.781-2.76-4.95-8.788-7.926-17.305-9.068Z" class="color941700 svgShape"></path><path fill="#040f33" d="M1328.77 1703.46s-137.328-18.582-147.878 14.745c-1.874 3.715 24.503 20.699 81.715 15.446 20.794-1.909 50.825-13.166 66.163-30.191Z" class="color040f33 svgShape"></path><path fill="#f99184" d="M1316.06 1639.33s2.139 54.708 16.458 69.764c14.32 15.057-114.131 48.178-138.521 22.694 42.569-15.066 4.147-56.614-17.612-131.071-14.629-50.063 117.875-56.7 139.675 38.613Z" class="colorf99184 svgShape"></path><path fill="#541911" d="M1130.38 1872.13s-15.222-93.701 52.242-108.669c0 0 32.931 11.481 28.571 70.696-4.359 59.214 23.931 99.5.121 129.816-23.81 30.316-51.698 16.413-59.151 3.999-7.453-12.414-14.797-43.279-21.783-95.842Z" class="color541911 svgShape"></path><path fill="#017e38" d="M1362.12 1727.81s88.186-44.232 119.35 129.632c24.86 138.689 72.76 253.662 72.76 253.662s-49.565 105.729-221.801 113.674c0 0-137.363-1.478-164.809-58.381 0 0-25.955-361.447 7.311-403.168 0 0 25.224 39.791 68.475 28.757 43.252-11.034 105.719-26.007 118.714-64.176Z" class="color017e38 svgShape"></path><path fill="#017e38" d="M1361.67 1727.04s-1.262-26.125-9.389-27.199c-8.127-1.073-22.17 2.234-22.17 2.234s-35.114 28.616-78.649 29.875c-43.535 1.259-60.921-3.781-66.794-11.376 0 0-19.606-18.7-10.293 42.707 9.578 22.958 29.749 43.303 93.633 24.626 30.531-8.926 95.089-31.007 93.662-60.867Z" class="color017e38 svgShape"></path><path fill="#f99184" d="M1693.35 1865.88c9.367-3.685 41.013-18.868 64.055 15.861 23.043 34.728 5.021 51.567-9.213 48.043-14.235-3.525-26.699-6.579-33.048-4.073-38.413 15.163-49.026-49.118-21.794-59.831Z" class="colorf99184 svgShape"></path><path fill="#017e38" d="M1713.46 1960.79s39.242-87.537-26.062-111.696c0 0-180.076 25.904-196.208 48.47-16.132 22.566-87.949 153.159 55.181 141.272 0 0 44.538-4.548 167.089-78.046Z" class="color017e38 svgShape"></path><path fill="#017e38" d="M1526.46 1866.84s-62.6-102.122-83.532-121.434c-20.932-19.313-29.275-24.79-60.47-10.795-16.891 7.577-39.913 62.789-38.175 107.416 2.038 52.343 94.169 219.069 170.185 177.166 76.015-41.903 11.992-152.353 11.992-152.353Z" class="color017e38 svgShape"></path><path fill="#131313" d="M1381.44 1732.33c-5.389 2.417-11.492 9.28-17.167 19.143-12.64 21.969-23.717 58.943-22.482 90.651 1.02 26.212 24.267 80.848 56.929 124.118 21.749 28.812 47.681 52.532 73.818 59.799 13.359 11.725 36.458 18.404 74.046 15.283a2.5 2.5 0 0 0-.413-4.982c-36.045 2.993-58.134-3.061-70.737-14.415a2.495 2.495 0 0 0-1.025-.557c-25.439-6.837-50.533-30.099-71.7-58.14-31.949-42.325-54.925-95.661-55.923-121.301-1.198-30.768 9.555-66.645 21.82-87.963 4.999-8.688 10.133-14.946 14.88-17.075a2.5 2.5 0 0 0-2.046-4.561Z" class="color131313 svgShape"></path><path fill="#f99184" d="M1355.75 1420.54c29.172 30.083 113.936 272.528-49.39 263.117-163.325-9.412-169.614-137.319-179.173-176.126-15.84-64.308 122.837-196.016 228.563-86.991Z" class="colorf99184 svgShape"></path><path fill="#311c19" d="M1368.2 1461.65s34.433-20.436 38.639-49.875c1.997-13.974-16.146-51.092-16.146-51.092-31.846-60.928-390.168 7.488-247.963 220.932 0 0 25.039 52.279 44.482 62.181 19.442 9.903 60.757-19.91 74.202-29.219 13.445-9.308 24.897-52.132 27.968-65.098 0 0-14.827-70.019-.918-83.558 13.908-13.539 33.437-10.181 41.029 15.301 7.591 25.481 10.585 29.744 10.585 29.744s14.564-11.716 28.122-49.316Z" class="color311c19 svgShape"></path><path fill="#1b1b1b" d="M1297.09 1565.1s.756 33.766 9.406 59.471c2.82 8.379 6.467 15.899 11.258 21.012 4.546 4.852 10.14 7.466 17.046 6.344.928-.151 1.807.503 1.963 1.462.156.958-.471 1.857-1.399 2.008-12.015 1.952-20.74-5.585-26.915-17.345-13.662-26.02-14.768-72.905-14.768-72.905-.021-.97.724-1.767 1.665-1.78.941-.013 1.722.763 1.744 1.733Z" class="color1b1b1b svgShape"></path><path fill="#3f3f3f" d="M1354.78 1404.38s13.112 26.673 1.069 70.621a.967.967 0 0 1-1.208.685 1.025 1.025 0 0 1-.678-1.252c11.794-43.038-.93-69.16-.93-69.16-.244-.5-.051-1.105.431-1.352a.972.972 0 0 1 1.316.458ZM1105.84 1486.47s20.225.044 35.497-3.345c.47-.104.937.205 1.043.691.106.485-.189.964-.659 1.068-15.432 3.423-35.867 3.385-35.867 3.385-.482-.001-.876-.404-.88-.901a.876.876 0 0 1 .866-.898Z" class="color3f3f3f svgShape"></path><path fill="#948988" d="m826.151 2127.05 147.638-35.403s36.598-16.571 52.455 21.805c15.858 38.376 49.527 137.805 49.527 137.805l-47.788 27.91-36.612-119.489s-11.639-29.655-36.319-19.188c-24.681 10.466-114.618 33.443-114.618 33.443l-14.283-46.883Z" class="color948988 svgShape"></path><path fill="#ffc100" d="M553.161 2449.92s-332.646-646.491-202.058-651.642c130.589-5.152 329.418-61.816 371.604 30.908 42.185 92.724 194.031 576.631 203.232 620.417l-372.778.317Z" class="colorffc100 svgShape"></path><path fill="#ffc100" d="m506.309 2356.34 387.378-16.609 182.337-84.322 23.928 114.985-174.246 79.211H553.399l-47.09-93.265Z" class="colorffc100 svgShape"></path><path fill="#1b1b1b" d="m506.417 2358.83 387.377-16.609c.326-.014.646-.091.943-.228l182.336-84.323a2.499 2.499 0 1 0-2.098-4.537l-181.888 84.115-386.885 16.588a2.5 2.5 0 1 0 .215 4.994Z" class="color1b1b1b svgShape"></path><path fill="#948988" d="m1404.01 2069.07 138.849-31.52s34.478-16.125 45.431 21.216c10.953 37.341 32.639 134.087 32.639 134.087l-45.568 27.157-22.587-116.265s-7.909-28.855-31.097-18.671c-23.188 10.184-105.449 33.218-105.449 33.218l-12.218-49.222Z" class="color948988 svgShape"></path><path fill="#ffc100" d="M1131.92 2386.16s-243.636-629.052-125.336-634.064c118.3-5.013 302.691-60.149 332.65 30.074 29.958 90.222 124.377 561.076 128.849 603.681l-336.163.309Z" class="colorffc100 svgShape"></path><path fill="#ffc100" d="m1097.82 2295.1 351.042-16.161 171.927-82.048 11.534 111.883-164.179 77.075h-335.988l-34.336-90.749Z" class="colorffc100 svgShape"></path><path fill="#1b1b1b" d="m1097.94 2297.6 351.043-16.161c.333-.016.66-.098.961-.241l171.927-82.048-2.153-4.512-171.47 81.83-350.537 16.138.229 4.994Z" class="color1b1b1b svgShape"></path></svg>