<svg xmlns="http://www.w3.org/2000/svg" xmlns:xlink="http://www.w3.org/1999/xlink" viewBox="0 0 1080 1080" width="1080" height="1080" preserveAspectRatio="xMidYMid meet" style="width: 100%; height: 100%; transform: translate3d(0px, 0px, 0px); content-visibility: visible;"><defs><clipPath id="__lottie_element_3"><rect width="1080" height="1080" x="0" y="0"></rect></clipPath><clipPath id="__lottie_element_5"><path d="M0,0 L768,0 L768,593 L0,593z"></path></clipPath><clipPath id="__lottie_element_9"><path d="M0,0 L547,0 L547,501 L0,501z"></path></clipPath></defs><g clip-path="url(#__lottie_element_3)"><g clip-path="url(#__lottie_element_5)" transform="matrix(1,0,0,1,203,174)" opacity="1" style="display: block;"><g transform="matrix(1,0,0,1,72.99099731445312,97.59600830078125)" opacity="1" style="display: block;"><g opacity="1" transform="matrix(1,0,0,1,247.67999267578125,247.67999267578125)"><path fill="rgb(250,231,106)" fill-opacity="1" d=" M247.4290008544922,0 C247.4290008544922,136.65199279785156 136.6510009765625,247.42999267578125 -0.0010000000474974513,247.42999267578125 C-136.65199279785156,247.42999267578125 -247.42999267578125,136.65199279785156 -247.42999267578125,0 C-247.42999267578125,-136.6510009765625 -136.65199279785156,-247.42999267578125 -0.0010000000474974513,-247.42999267578125 C136.6510009765625,-247.42999267578125 247.4290008544922,-136.6510009765625 247.4290008544922,0z"></path></g></g><g transform="matrix(1.3170063495635986,0,0,1.3170063495635986,-4.637073516845703,266.5677795410156)" opacity="1" style="display: block;"><g opacity="1" transform="matrix(1,0,0,1,22.983999252319336,22.5)"><path stroke-linecap="butt" stroke-linejoin="miter" fill-opacity="0" stroke-miterlimit="10" stroke="rgb(0,0,0)" stroke-opacity="1" stroke-width="2" d=" M17.983999252319336,0 C17.983999252319336,9.664999961853027 9.932000160217285,17.5 0,17.5 C-9.932000160217285,17.5 -17.983999252319336,9.664999961853027 -17.983999252319336,0 C-17.983999252319336,-9.664999961853027 -9.932000160217285,-17.5 0,-17.5 C9.932000160217285,-17.5 17.983999252319336,-9.664999961853027 17.983999252319336,0z"></path></g></g><g style="display: block;" transform="matrix(1,0,0,1,525.1431884765625,139.38375854492188)" opacity="0.8636487474174256"><g opacity="1" transform="matrix(1,0,0,1,35.31399917602539,30.92300033569336)"><path stroke-linecap="butt" stroke-linejoin="miter" fill-opacity="0" stroke-miterlimit="10" stroke="rgb(0,0,0)" stroke-opacity="1" stroke-width="2" d=" M-34.31399917602539,16.548999786376953 C-34.31399917602539,16.548999786376953 34.31399917602539,-16.548999786376953 34.31399917602539,-16.548999786376953"></path></g><g opacity="1" transform="matrix(1,0,0,1,55.34600067138672,23.465999603271484)"><path stroke-linecap="butt" stroke-linejoin="miter" fill-opacity="0" stroke-miterlimit="10" stroke="rgb(0,0,0)" stroke-opacity="1" stroke-width="2" d=" M4.73199987411499,18.465999603271484 C4.73199987411499,18.465999603271484 14.282999992370605,-9.092000007629395 14.282999992370605,-9.092000007629395 C14.282999992370605,-9.092000007629395 -14.282999992370605,-18.465999603271484 -14.282999992370605,-18.465999603271484"></path></g></g><g transform="matrix(1.0753395557403564,0,0,1.0753395557403564,324.2733459472656,62.497962951660156)" opacity="1" style="display: block;"><g opacity="1" transform="matrix(1,0,0,1,17.40999984741211,17.07699966430664)"><path stroke-linecap="butt" stroke-linejoin="miter" fill-opacity="0" stroke-miterlimit="10" stroke="rgb(0,0,0)" stroke-opacity="1" stroke-width="2" d=" M12.41100025177002,0 C12.41100025177002,6.669000148773193 6.854000091552734,12.076000213623047 0,12.076000213623047 C-6.854000091552734,12.076000213623047 -12.41100025177002,6.669000148773193 -12.41100025177002,0 C-12.41100025177002,-6.670000076293945 -6.854000091552734,-12.076000213623047 0,-12.076000213623047 C6.854000091552734,-12.076000213623047 12.41100025177002,-6.670000076293945 12.41100025177002,0z"></path></g></g></g><g clip-path="url(#__lottie_element_9)" transform="matrix(1,0,0,1,345,361)" opacity="1" style="display: block;"><g transform="matrix(0.9958594441413879,0.09090687334537506,-0.09090687334537506,0.9958594441413879,93.66256713867188,4.074029922485352)" opacity="1" style="display: block;"><g opacity="1" transform="matrix(1,0,0,1,47.547000885009766,64.75)"><path fill="rgb(0,0,0)" fill-opacity="1" d=" M-34.97600173950195,-55.500999450683594 C-35.79800033569336,-53.86800003051758 -36.62099838256836,-52.23500061035156 -37.44300079345703,-50.60200119018555 C-30.666000366210938,-46.7760009765625 -23.332000732421875,-43.9379997253418 -15.746000289916992,-42.20800018310547 C-20.895000457763672,-41.869998931884766 -26.131000518798828,-42.981998443603516 -30.698999404907227,-45.382999420166016 C-31.726999282836914,-45.92399978637695 -32.827999114990234,-46.54999923706055 -33.974998474121094,-46.367000579833984 C-35.446998596191406,-46.13199996948242 -36.36899948120117,-44.685001373291016 -37.04800033569336,-43.358001708984375 C-41.16299819946289,-35.327999114990234 -43.50899887084961,-26.395999908447266 -43.87099838256836,-17.3799991607666 C-43.92499923706055,-16.03700065612793 -43.90700149536133,-14.593999862670898 -43.141998291015625,-13.48799991607666 C-42.244998931884766,-12.192999839782715 -40.58300018310547,-11.718999862670898 -39.04999923706055,-11.359000205993652 C-31.347000122070312,-9.552000045776367 -23.496999740600586,-8.36400032043457 -15.604000091552734,-7.811999797821045 C-25.375,-5.64900016784668 -35.8390007019043,-6.742000102996826 -44.952999114990234,-10.878000259399414 C-47.29800033569336,5.89900016784668 -41.61000061035156,23.6200008392334 -29.937000274658203,35.895999908447266 C-25.59600067138672,33.88999938964844 -21.256000518798828,31.881999969482422 -16.915000915527344,29.874000549316406 C-20.21500015258789,32.98500061035156 -23.892000198364258,35.69499969482422 -27.839000701904297,37.92599868774414 C-17.722000122070312,48.96099853515625 -5.4730000495910645,58.03499984741211 8.031000137329102,64.4990005493164 C26.280000686645508,43.73500061035156 36.165000915527344,17.195999145507812 40.93199920654297,-9.72599983215332 C42.994998931884766,-21.371000289916992 47.29800033569336,-38.38800048828125 44.68199920654297,-50.09000015258789 C41.46099853515625,-64.5 23.430999755859375,-54.5359992980957 13.871000289916992,-52.63999938964844 C5.551000118255615,-50.9900016784668 -2.9560000896453857,-49.92399978637695 -11.45199966430664,-50.28099822998047 C-13.413999557495117,-50.362998962402344 -35.676998138427734,-54.108001708984375 -34.97600173950195,-55.500999450683594z"></path></g></g><g transform="matrix(0.9969286918640137,-0.07831497490406036,0.07831497490406036,0.9969286918640137,141.79322814941406,105.13225555419922)" opacity="1" style="display: block;"><g opacity="1" transform="matrix(1,0,0,1,119.21600341796875,63.624000549316406)"><path fill="rgb(250,199,180)" fill-opacity="1" d=" M-90.91000366210938,58.624000549316406 C-90.91000366210938,58.624000549316406 -64.10700225830078,25.586000442504883 -113.34300231933594,-35.93299865722656 C-118.96600341796875,-42.95899963378906 112.96600341796875,-58.624000549316406 112.96600341796875,-58.624000549316406 C112.96600341796875,-58.624000549316406 118.96600341796875,23.375999450683594 118.96600341796875,23.375999450683594 C118.96600341796875,23.375999450683594 -90.91000366210938,58.624000549316406 -90.91000366210938,58.624000549316406z"></path></g><g opacity="1" transform="matrix(1,0,0,1,128.4739990234375,60.96900177001953)"><path stroke-linecap="butt" stroke-linejoin="miter" fill-opacity="0" stroke-miterlimit="10" stroke="rgb(0,0,0)" stroke-opacity="1" stroke-width="2" d=" M-109.70700073242188,-37.097999572753906 C-109.70700073242188,-37.097999572753906 103.70700073242188,-55.96900177001953 103.70700073242188,-55.96900177001953 C103.70700073242188,-55.96900177001953 109.70700073242188,26.0310001373291 109.70700073242188,26.0310001373291 C109.70700073242188,26.0310001373291 -68.552001953125,55.96900177001953 -68.552001953125,55.96900177001953"></path></g></g><g transform="matrix(0.9991660714149475,-0.0408315509557724,0.0408315509557724,0.9991660714149475,42.28562927246094,120.95004272460938)" opacity="1" style="display: block;"><g opacity="1" transform="matrix(1,0,0,1,96.7300033569336,116.01399993896484)"><path fill="rgb(250,199,180)" fill-opacity="1" d=" M48.43600082397461,-108.81300354003906 C48.43600082397461,-108.81300354003906 48.43600082397461,-108.81300354003906 48.43600082397461,-108.81300354003906 C64.23600006103516,-100.74299621582031 75.48500061035156,-84.60399627685547 85.8550033569336,-28.59600067138672 C85.8550033569336,-28.59600067138672 96.4800033569336,115.76300048828125 96.4800033569336,115.76300048828125 C96.4800033569336,115.76300048828125 -96.4800033569336,106.88500213623047 -96.4800033569336,106.88500213623047 C-96.4800033569336,106.88500213623047 -53.8129997253418,-65.28900146484375 -53.8129997253418,-65.28900146484375 C-49.55500030517578,-82.47200012207031 -37.16299819946289,-96.48500061035156 -20.628999710083008,-102.81300354003906 C-20.628999710083008,-102.81300354003906 23.062000274658203,-115.76300048828125 36.09600067138672,-112.19200134277344 C36.09600067138672,-112.19200134277344 48.43600082397461,-108.81300354003906 48.43600082397461,-108.81300354003906z"></path></g></g><g transform="matrix(1,0,0,1,-1.061004638671875,200.97801208496094)" opacity="1" style="display: block;"><g opacity="1" transform="matrix(1,0,0,1,262.447998046875,150.72999572753906)"><path fill="rgb(190,220,217)" fill-opacity="1" d=" M232.69500732421875,148.22999572753906 C232.69500732421875,148.22999572753906 -232.69500732421875,148.22999572753906 -232.69500732421875,148.22999572753906 C-247.74600219726562,148.22999572753906 -259.947998046875,136.0279998779297 -259.947998046875,120.97699737548828 C-259.947998046875,120.97699737548828 -259.947998046875,-120.97799682617188 -259.947998046875,-120.97799682617188 C-259.947998046875,-136.0290069580078 -247.74600219726562,-148.22999572753906 -232.69500732421875,-148.22999572753906 C-232.69500732421875,-148.22999572753906 232.69500732421875,-148.22999572753906 232.69500732421875,-148.22999572753906 C247.7469940185547,-148.22999572753906 259.947998046875,-136.0290069580078 259.947998046875,-120.97799682617188 C259.947998046875,-120.97799682617188 259.947998046875,120.97699737548828 259.947998046875,120.97699737548828 C259.947998046875,136.0279998779297 247.7469940185547,148.22999572753906 232.69500732421875,148.22999572753906z"></path><path stroke-linecap="butt" stroke-linejoin="miter" fill-opacity="0" stroke-miterlimit="10" stroke="rgb(255,255,255)" stroke-opacity="1" stroke-width="1" d=" M232.69500732421875,148.22999572753906 C232.69500732421875,148.22999572753906 -232.69500732421875,148.22999572753906 -232.69500732421875,148.22999572753906 C-247.74600219726562,148.22999572753906 -259.947998046875,136.0279998779297 -259.947998046875,120.97699737548828 C-259.947998046875,120.97699737548828 -259.947998046875,-120.97799682617188 -259.947998046875,-120.97799682617188 C-259.947998046875,-136.0290069580078 -247.74600219726562,-148.22999572753906 -232.69500732421875,-148.22999572753906 C-232.69500732421875,-148.22999572753906 232.69500732421875,-148.22999572753906 232.69500732421875,-148.22999572753906 C247.7469940185547,-148.22999572753906 259.947998046875,-136.0290069580078 259.947998046875,-120.97799682617188 C259.947998046875,-120.97799682617188 259.947998046875,120.97699737548828 259.947998046875,120.97699737548828 C259.947998046875,136.0279998779297 247.7469940185547,148.22999572753906 232.69500732421875,148.22999572753906z"></path></g></g><g transform="matrix(1,0,0,1,49.744998931884766,231.5540008544922)" opacity="0.9843862511188296" style="display: block;"><g opacity="1" transform="matrix(1,0,0,1,6.666999816894531,7)"><path fill="rgb(255,255,255)" fill-opacity="1" d=" M6.416999816894531,0 C6.416999816894531,3.7279999256134033 3.5429999828338623,6.75 -0.0010000000474974513,6.75 C-3.5439999103546143,6.75 -6.416999816894531,3.7279999256134033 -6.416999816894531,0 C-6.416999816894531,-3.7279999256134033 -3.5439999103546143,-6.75 -0.0010000000474974513,-6.75 C3.5429999828338623,-6.75 6.416999816894531,-3.7279999256134033 6.416999816894531,0z"></path></g></g><g transform="matrix(1,0,0,1,67.51399993896484,231.5540008544922)" opacity="1" style="display: block;"><g opacity="1" transform="matrix(1,0,0,1,6.665999889373779,7)"><path fill="rgb(255,255,255)" fill-opacity="1" d=" M6.415999889373779,0 C6.415999889373779,3.7279999256134033 3.5439999103546143,6.75 0,6.75 C-3.5439999103546143,6.75 -6.415999889373779,3.7279999256134033 -6.415999889373779,0 C-6.415999889373779,-3.7279999256134033 -3.5439999103546143,-6.75 0,-6.75 C3.5439999103546143,-6.75 6.415999889373779,-3.7279999256134033 6.415999889373779,0z"></path></g></g><g transform="matrix(1,0,0,1,85.28099822998047,231.5540008544922)" opacity="1" style="display: block;"><g opacity="1" transform="matrix(1,0,0,1,6.666999816894531,7)"><path fill="rgb(255,255,255)" fill-opacity="1" d=" M6.416999816894531,0 C6.416999816894531,3.7279999256134033 3.5429999828338623,6.75 -0.0010000000474974513,6.75 C-3.5439999103546143,6.75 -6.416999816894531,3.7279999256134033 -6.416999816894531,0 C-6.416999816894531,-3.7279999256134033 -3.5439999103546143,-6.75 -0.0010000000474974513,-6.75 C3.5429999828338623,-6.75 6.416999816894531,-3.7279999256134033 6.416999816894531,0z"></path></g></g><g transform="matrix(1,0,0,1,21.612991333007812,359.6300048828125)" opacity="1" style="display: block;"><g opacity="1" transform="matrix(1,0,0,1,188.81300354003906,60.28099822998047)"><path fill="rgb(201,126,141)" fill-opacity="1" d=" M167.2480010986328,55.28099822998047 C167.2480010986328,55.28099822998047 -167.2469940185547,55.28099822998047 -167.2469940185547,55.28099822998047 C-176.39700317382812,55.28099822998047 -183.81300354003906,47.8650016784668 -183.81300354003906,38.71699905395508 C-183.81300354003906,38.71699905395508 -183.81300354003906,-38.71699905395508 -183.81300354003906,-38.71699905395508 C-183.81300354003906,-47.8650016784668 -176.39700317382812,-55.28099822998047 -167.2469940185547,-55.28099822998047 C-167.2469940185547,-55.28099822998047 167.2480010986328,-55.28099822998047 167.2480010986328,-55.28099822998047 C176.39599609375,-55.28099822998047 183.81300354003906,-47.8650016784668 183.81300354003906,-38.71699905395508 C183.81300354003906,-38.71699905395508 183.81300354003906,38.71699905395508 183.81300354003906,38.71699905395508 C183.81300354003906,47.8650016784668 176.39599609375,55.28099822998047 167.2480010986328,55.28099822998047z"></path><path stroke-linecap="butt" stroke-linejoin="miter" fill-opacity="0" stroke-miterlimit="10" stroke="rgb(255,255,255)" stroke-opacity="1" stroke-width="2" d=" M167.2480010986328,55.28099822998047 C167.2480010986328,55.28099822998047 -167.2469940185547,55.28099822998047 -167.2469940185547,55.28099822998047 C-176.39700317382812,55.28099822998047 -183.81300354003906,47.8650016784668 -183.81300354003906,38.71699905395508 C-183.81300354003906,38.71699905395508 -183.81300354003906,-38.71699905395508 -183.81300354003906,-38.71699905395508 C-183.81300354003906,-47.8650016784668 -176.39700317382812,-55.28099822998047 -167.2469940185547,-55.28099822998047 C-167.2469940185547,-55.28099822998047 167.2480010986328,-55.28099822998047 167.2480010986328,-55.28099822998047 C176.39599609375,-55.28099822998047 183.81300354003906,-47.8650016784668 183.81300354003906,-38.71699905395508 C183.81300354003906,-38.71699905395508 183.81300354003906,38.71699905395508 183.81300354003906,38.71699905395508 C183.81300354003906,47.8650016784668 176.39599609375,55.28099822998047 167.2480010986328,55.28099822998047z"></path></g></g><g transform="matrix(1,0,0,1,52.24199676513672,379.8800048828125)" opacity="1" style="display: block;"><g opacity="1" transform="matrix(1,0,0,1,41.400001525878906,41.400001525878906)"><path stroke-linecap="butt" stroke-linejoin="miter" fill-opacity="0" stroke-miterlimit="10" stroke="rgb(255,255,255)" stroke-opacity="1" stroke-width="2" d=" M36.4010009765625,0 C36.4010009765625,20.10300064086914 20.10300064086914,36.400001525878906 0,36.400001525878906 C-20.104000091552734,36.400001525878906 -36.4010009765625,20.10300064086914 -36.4010009765625,0 C-36.4010009765625,-20.104000091552734 -20.104000091552734,-36.400001525878906 0,-36.400001525878906 C20.10300064086914,-36.400001525878906 36.4010009765625,-20.104000091552734 36.4010009765625,0z"></path></g><g opacity="1" transform="matrix(1,0,0,1,46.79199981689453,41.222999572753906)"><path fill="rgb(255,255,255)" fill-opacity="1" d=" M18.055999755859375,1.399999976158142 C18.055999755859375,1.399999976158142 -16.461999893188477,24.155000686645508 -16.461999893188477,24.155000686645508 C-17.57699966430664,24.889999389648438 -19.062000274658203,24.09000015258789 -19.062000274658203,22.753999710083008 C-19.062000274658203,22.753999710083008 -19.062000274658203,-22.7549991607666 -19.062000274658203,-22.7549991607666 C-19.062000274658203,-24.090999603271484 -17.57699966430664,-24.891000747680664 -16.461999893188477,-24.1560001373291 C-16.461999893188477,-24.1560001373291 18.055999755859375,-1.4010000228881836 18.055999755859375,-1.4010000228881836 C19.062000274658203,-0.7379999756813049 19.062000274658203,0.7369999885559082 18.055999755859375,1.399999976158142z"></path></g></g><g transform="matrix(1,0,0,1,146.8699951171875,400.6650085449219)" opacity="1" style="display: block;"><g opacity="1" transform="matrix(1,0,0,1,64.45899963378906,11.458999633789062)"><path stroke-linecap="butt" stroke-linejoin="miter" fill-opacity="0" stroke-miterlimit="10" stroke="rgb(255,255,255)" stroke-opacity="1" stroke-width="2" d=" M53,6.459000110626221 C53,6.459000110626221 -53,6.459000110626221 -53,6.459000110626221 C-56.566001892089844,6.459000110626221 -59.45800018310547,3.566999912261963 -59.45800018310547,0 C-59.45800018310547,-3.566999912261963 -56.566001892089844,-6.459000110626221 -53,-6.459000110626221 C-53,-6.459000110626221 53,-6.459000110626221 53,-6.459000110626221 C56.56700134277344,-6.459000110626221 59.45800018310547,-3.566999912261963 59.45800018310547,0 C59.45800018310547,3.566999912261963 56.56700134277344,6.459000110626221 53,6.459000110626221z"></path></g><g opacity="1" transform="matrix(1,0,0,1,92.76300048828125,35.67100143432617)"><path stroke-linecap="butt" stroke-linejoin="miter" fill-opacity="0" stroke-miterlimit="10" stroke="rgb(255,255,255)" stroke-opacity="1" stroke-width="2" d=" M81.30500030517578,6.458000183105469 C81.30500030517578,6.458000183105469 -81.3030014038086,6.458000183105469 -81.3030014038086,6.458000183105469 C-84.87000274658203,6.458000183105469 -87.76200103759766,3.566999912261963 -87.76200103759766,0.0010000000474974513 C-87.76200103759766,-3.565999984741211 -84.87000274658203,-6.458000183105469 -81.3030014038086,-6.458000183105469 C-81.3030014038086,-6.458000183105469 81.30500030517578,-6.458000183105469 81.30500030517578,-6.458000183105469 C84.87100219726562,-6.458000183105469 87.76200103759766,-3.565999984741211 87.76200103759766,0.0010000000474974513 C87.76200103759766,3.566999912261963 84.87100219726562,6.458000183105469 81.30500030517578,6.458000183105469z"></path></g></g><g transform="matrix(1,0,0,1,195,180)" opacity="1" style="display: block;"><g opacity="1" transform="matrix(1,0,0,1,0,0)"><path stroke-linecap="round" stroke-linejoin="miter" fill-opacity="0" stroke-miterlimit="4" stroke="rgb(255,255,255)" stroke-opacity="1" stroke-width="10" d=" M-85.68000030517578,92 C14.090999603271484,92 193,92 193,92 M-151,92 C-151,92 -139.2449951171875,92 -120.08200073242188,92"></path></g></g><g transform="matrix(1,0,0,1,195,223)" opacity="1" style="display: block;"><g opacity="1" transform="matrix(1,0,0,1,0,0)"><path stroke-linecap="round" stroke-linejoin="miter" fill-opacity="0" stroke-miterlimit="4" stroke="rgb(255,255,255)" stroke-opacity="1" stroke-width="10" d=" M-1.6009999513626099,92 C91.2300033569336,92 193,92 193,92 M-151,92 C-151,92 -99.30899810791016,92 -36.00299835205078,92"></path></g></g><g transform="matrix(1,0,0,1,195,243)" opacity="1" style="display: block;"><g opacity="1" transform="matrix(1,0,0,1,0,0)"><path stroke-linecap="round" stroke-linejoin="miter" fill-opacity="0" stroke-miterlimit="4" stroke="rgb(255,255,255)" stroke-opacity="1" stroke-width="10" d=" M-131.57200622558594,92 C-69.55699920654297,92 122.82499694824219,92 178.04299926757812,92"></path></g></g><g transform="matrix(1,0,0,1,424.385986328125,236.46900939941406)" opacity="1" style="display: block;"><g opacity="1" transform="matrix(1,0,0,1,29.150999069213867,26.941999435424805)"><path fill="rgb(201,126,141)" fill-opacity="1" d=" M-24.150999069213867,-14.888999938964844 C-24.150999069213867,-18.784000396728516 -20.676000595092773,-21.941999435424805 -16.38800048828125,-21.941999435424805 C-16.38800048828125,-21.941999435424805 16.388999938964844,-21.941999435424805 16.388999938964844,-21.941999435424805 C20.676000595092773,-21.941999435424805 24.150999069213867,-18.784000396728516 24.150999069213867,-14.888999938964844 C24.150999069213867,-14.888999938964844 24.150999069213867,14.888999938964844 24.150999069213867,14.888999938964844 C24.150999069213867,18.784000396728516 20.676000595092773,21.941999435424805 16.388999938964844,21.941999435424805 C16.388999938964844,21.941999435424805 -16.38800048828125,21.941999435424805 -16.38800048828125,21.941999435424805 C-20.676000595092773,21.941999435424805 -24.150999069213867,18.784000396728516 -24.150999069213867,14.888999938964844 C-24.150999069213867,14.888999938964844 -24.150999069213867,-14.888999938964844 -24.150999069213867,-14.888999938964844z"></path><path stroke-linecap="butt" stroke-linejoin="miter" fill-opacity="0" stroke-miterlimit="10" stroke="rgb(255,255,255)" stroke-opacity="1" stroke-width="2" d=" M-24.150999069213867,-14.888999938964844 C-24.150999069213867,-18.784000396728516 -20.676000595092773,-21.941999435424805 -16.38800048828125,-21.941999435424805 C-16.38800048828125,-21.941999435424805 16.388999938964844,-21.941999435424805 16.388999938964844,-21.941999435424805 C20.676000595092773,-21.941999435424805 24.150999069213867,-18.784000396728516 24.150999069213867,-14.888999938964844 C24.150999069213867,-14.888999938964844 24.150999069213867,14.888999938964844 24.150999069213867,14.888999938964844 C24.150999069213867,18.784000396728516 20.676000595092773,21.941999435424805 16.388999938964844,21.941999435424805 C16.388999938964844,21.941999435424805 -16.38800048828125,21.941999435424805 -16.38800048828125,21.941999435424805 C-20.676000595092773,21.941999435424805 -24.150999069213867,18.784000396728516 -24.150999069213867,14.888999938964844 C-24.150999069213867,14.888999938964844 -24.150999069213867,-14.888999938964844 -24.150999069213867,-14.888999938964844z"></path></g></g><g transform="matrix(1,0,0,1,424.385986328125,299.15899658203125)" opacity="1" style="display: block;"><g opacity="1" transform="matrix(1,0,0,1,29.150999069213867,26.94300079345703)"><path fill="rgb(201,126,141)" fill-opacity="1" d=" M-24.150999069213867,-14.888999938964844 C-24.150999069213867,-18.78499984741211 -20.676000595092773,-21.94300079345703 -16.38800048828125,-21.94300079345703 C-16.38800048828125,-21.94300079345703 16.388999938964844,-21.94300079345703 16.388999938964844,-21.94300079345703 C20.676000595092773,-21.94300079345703 24.150999069213867,-18.78499984741211 24.150999069213867,-14.888999938964844 C24.150999069213867,-14.888999938964844 24.150999069213867,14.887999534606934 24.150999069213867,14.887999534606934 C24.150999069213867,18.784000396728516 20.676000595092773,21.94300079345703 16.388999938964844,21.94300079345703 C16.388999938964844,21.94300079345703 -16.38800048828125,21.94300079345703 -16.38800048828125,21.94300079345703 C-20.676000595092773,21.94300079345703 -24.150999069213867,18.784000396728516 -24.150999069213867,14.887999534606934 C-24.150999069213867,14.887999534606934 -24.150999069213867,-14.888999938964844 -24.150999069213867,-14.888999938964844z"></path><path stroke-linecap="butt" stroke-linejoin="miter" fill-opacity="0" stroke-miterlimit="10" stroke="rgb(255,255,255)" stroke-opacity="1" stroke-width="2" d=" M-24.150999069213867,-14.888999938964844 C-24.150999069213867,-18.78499984741211 -20.676000595092773,-21.94300079345703 -16.38800048828125,-21.94300079345703 C-16.38800048828125,-21.94300079345703 16.388999938964844,-21.94300079345703 16.388999938964844,-21.94300079345703 C20.676000595092773,-21.94300079345703 24.150999069213867,-18.78499984741211 24.150999069213867,-14.888999938964844 C24.150999069213867,-14.888999938964844 24.150999069213867,14.887999534606934 24.150999069213867,14.887999534606934 C24.150999069213867,18.784000396728516 20.676000595092773,21.94300079345703 16.388999938964844,21.94300079345703 C16.388999938964844,21.94300079345703 -16.38800048828125,21.94300079345703 -16.38800048828125,21.94300079345703 C-20.676000595092773,21.94300079345703 -24.150999069213867,18.784000396728516 -24.150999069213867,14.887999534606934 C-24.150999069213867,14.887999534606934 -24.150999069213867,-14.888999938964844 -24.150999069213867,-14.888999938964844z"></path></g></g><g transform="matrix(1,0,0,1,424.385986328125,361.8520202636719)" opacity="1" style="display: block;"><g opacity="1" transform="matrix(1,0,0,1,29.150999069213867,26.941999435424805)"><path fill="rgb(201,126,141)" fill-opacity="1" d=" M-24.150999069213867,-14.890000343322754 C-24.150999069213867,-18.78499984741211 -20.676000595092773,-21.94099998474121 -16.38800048828125,-21.94099998474121 C-16.38800048828125,-21.94099998474121 16.388999938964844,-21.94099998474121 16.388999938964844,-21.94099998474121 C20.676000595092773,-21.94099998474121 24.150999069213867,-18.78499984741211 24.150999069213867,-14.890000343322754 C24.150999069213867,-14.890000343322754 24.150999069213867,14.887999534606934 24.150999069213867,14.887999534606934 C24.150999069213867,18.784000396728516 20.676000595092773,21.94099998474121 16.388999938964844,21.94099998474121 C16.388999938964844,21.94099998474121 -16.38800048828125,21.94099998474121 -16.38800048828125,21.94099998474121 C-20.676000595092773,21.94099998474121 -24.150999069213867,18.784000396728516 -24.150999069213867,14.887999534606934 C-24.150999069213867,14.887999534606934 -24.150999069213867,-14.890000343322754 -24.150999069213867,-14.890000343322754z"></path><path stroke-linecap="butt" stroke-linejoin="miter" fill-opacity="0" stroke-miterlimit="10" stroke="rgb(255,255,255)" stroke-opacity="1" stroke-width="2" d=" M-24.150999069213867,-14.890000343322754 C-24.150999069213867,-18.78499984741211 -20.676000595092773,-21.94099998474121 -16.38800048828125,-21.94099998474121 C-16.38800048828125,-21.94099998474121 16.388999938964844,-21.94099998474121 16.388999938964844,-21.94099998474121 C20.676000595092773,-21.94099998474121 24.150999069213867,-18.78499984741211 24.150999069213867,-14.890000343322754 C24.150999069213867,-14.890000343322754 24.150999069213867,14.887999534606934 24.150999069213867,14.887999534606934 C24.150999069213867,18.784000396728516 20.676000595092773,21.94099998474121 16.388999938964844,21.94099998474121 C16.388999938964844,21.94099998474121 -16.38800048828125,21.94099998474121 -16.38800048828125,21.94099998474121 C-20.676000595092773,21.94099998474121 -24.150999069213867,18.784000396728516 -24.150999069213867,14.887999534606934 C-24.150999069213867,14.887999534606934 -24.150999069213867,-14.890000343322754 -24.150999069213867,-14.890000343322754z"></path></g></g><g transform="matrix(1,0,0,1,424.385986328125,424.5429992675781)" opacity="1" style="display: block;"><g opacity="1" transform="matrix(1,0,0,1,29.150999069213867,26.941999435424805)"><path fill="rgb(201,126,141)" fill-opacity="1" d=" M-24.150999069213867,-14.888999938964844 C-24.150999069213867,-18.784000396728516 -20.676000595092773,-21.941999435424805 -16.38800048828125,-21.941999435424805 C-16.38800048828125,-21.941999435424805 16.388999938964844,-21.941999435424805 16.388999938964844,-21.941999435424805 C20.676000595092773,-21.941999435424805 24.150999069213867,-18.784000396728516 24.150999069213867,-14.888999938964844 C24.150999069213867,-14.888999938964844 24.150999069213867,14.888999938964844 24.150999069213867,14.888999938964844 C24.150999069213867,18.78499984741211 20.676000595092773,21.941999435424805 16.388999938964844,21.941999435424805 C16.388999938964844,21.941999435424805 -16.38800048828125,21.941999435424805 -16.38800048828125,21.941999435424805 C-20.676000595092773,21.941999435424805 -24.150999069213867,18.78499984741211 -24.150999069213867,14.888999938964844 C-24.150999069213867,14.888999938964844 -24.150999069213867,-14.888999938964844 -24.150999069213867,-14.888999938964844z"></path><path stroke-linecap="butt" stroke-linejoin="miter" fill-opacity="0" stroke-miterlimit="10" stroke="rgb(255,255,255)" stroke-opacity="1" stroke-width="2" d=" M-24.150999069213867,-14.888999938964844 C-24.150999069213867,-18.784000396728516 -20.676000595092773,-21.941999435424805 -16.38800048828125,-21.941999435424805 C-16.38800048828125,-21.941999435424805 16.388999938964844,-21.941999435424805 16.388999938964844,-21.941999435424805 C20.676000595092773,-21.941999435424805 24.150999069213867,-18.784000396728516 24.150999069213867,-14.888999938964844 C24.150999069213867,-14.888999938964844 24.150999069213867,14.888999938964844 24.150999069213867,14.888999938964844 C24.150999069213867,18.78499984741211 20.676000595092773,21.941999435424805 16.388999938964844,21.941999435424805 C16.388999938964844,21.941999435424805 -16.38800048828125,21.941999435424805 -16.38800048828125,21.941999435424805 C-20.676000595092773,21.941999435424805 -24.150999069213867,18.78499984741211 -24.150999069213867,14.888999938964844 C-24.150999069213867,14.888999938964844 -24.150999069213867,-14.888999938964844 -24.150999069213867,-14.888999938964844z"></path></g></g><g transform="matrix(0.9805853962898254,0.19609259068965912,-0.19609259068965912,0.9805853962898254,264.3759460449219,301.38592529296875)" opacity="1" style="display: block;"><g opacity="1" transform="matrix(1,0,0,1,111.06900024414062,75.7020034790039)"><path fill="rgb(241,141,48)" fill-opacity="1" d=" M-44.779998779296875,-68.98999786376953 C-44.779998779296875,-68.98999786376953 -1.6820000410079956,-55.59000015258789 32.362998962402344,-59.516998291015625 C60.93600082397461,-62.814998626708984 78.89600372314453,-64.73899841308594 92.83000183105469,-69.59300231933594 C96.01399993896484,-70.70099639892578 99.54000091552734,-69.552001953125 101.46099853515625,-66.78199768066406 C105.58300018310547,-60.840999603271484 106.06900024414062,-53.10100173950195 102.72100067138672,-46.691001892089844 C102.72100067138672,-46.691001892089844 97.71499633789062,-37.10300064086914 97.71499633789062,-37.10300064086914 C97.71499633789062,-37.10300064086914 98.30999755859375,-29.170000076293945 98.30999755859375,-29.170000076293945 C98.97899627685547,-20.257999420166016 96.08000183105469,-11.444000244140625 90.2509994506836,-4.670000076293945 C90.2509994506836,-4.670000076293945 84.19499969482422,2.36899995803833 84.19499969482422,2.36899995803833 C84.19499969482422,2.36899995803833 83.78399658203125,4.76200008392334 83.78399658203125,4.76200008392334 C82.21600341796875,13.894000053405762 76.95600128173828,21.976999282836914 69.24299621582031,27.111000061035156 C69.24299621582031,27.111000061035156 60.39699935913086,33.000999450683594 60.39699935913086,33.000999450683594 C58.51300048828125,42.72600173950195 52.446998596191406,51.12799835205078 43.808998107910156,55.97800064086914 C43.808998107910156,55.97800064086914 37.65599822998047,59.430999755859375 37.65599822998047,59.430999755859375 C37.65599822998047,59.430999755859375 -2.7039999961853027,70.70099639892578 -39.54999923706055,55.611000061035156 C-76.39399719238281,40.52000045776367 -91.2300033569336,8.753999710083008 -91.2300033569336,8.753999710083008 C-91.2300033569336,8.753999710083008 -44.779998779296875,-68.98999786376953 -44.779998779296875,-68.98999786376953z"></path><path stroke-linecap="butt" stroke-linejoin="miter" fill-opacity="0" stroke-miterlimit="10" stroke="rgb(0,0,0)" stroke-opacity="1" stroke-width="2" d=" M-44.779998779296875,-68.98999786376953 C-44.779998779296875,-68.98999786376953 -1.6820000410079956,-55.59000015258789 32.362998962402344,-59.516998291015625 C60.93600082397461,-62.814998626708984 78.89600372314453,-64.73899841308594 92.83000183105469,-69.59300231933594 C96.01399993896484,-70.70099639892578 99.54000091552734,-69.552001953125 101.46099853515625,-66.78199768066406 C105.58300018310547,-60.840999603271484 106.06900024414062,-53.10100173950195 102.72100067138672,-46.691001892089844 C102.72100067138672,-46.691001892089844 97.71499633789062,-37.10300064086914 97.71499633789062,-37.10300064086914 C97.71499633789062,-37.10300064086914 98.30999755859375,-29.170000076293945 98.30999755859375,-29.170000076293945 C98.97899627685547,-20.257999420166016 96.08000183105469,-11.444000244140625 90.2509994506836,-4.670000076293945 C90.2509994506836,-4.670000076293945 84.19499969482422,2.36899995803833 84.19499969482422,2.36899995803833 C84.19499969482422,2.36899995803833 83.78399658203125,4.76200008392334 83.78399658203125,4.76200008392334 C82.21600341796875,13.894000053405762 76.95600128173828,21.976999282836914 69.24299621582031,27.111000061035156 C69.24299621582031,27.111000061035156 60.39699935913086,33.000999450683594 60.39699935913086,33.000999450683594 C58.51300048828125,42.72600173950195 52.446998596191406,51.12799835205078 43.808998107910156,55.97800064086914 C43.808998107910156,55.97800064086914 37.65599822998047,59.430999755859375 37.65599822998047,59.430999755859375 C37.65599822998047,59.430999755859375 -2.7039999961853027,70.70099639892578 -39.54999923706055,55.611000061035156 C-76.39399719238281,40.52000045776367 -91.2300033569336,8.753999710083008 -91.2300033569336,8.753999710083008 C-91.2300033569336,8.753999710083008 -44.779998779296875,-68.98999786376953 -44.779998779296875,-68.98999786376953z"></path></g><g opacity="1" transform="matrix(1,0,0,1,166.2100067138672,42.433998107910156)"><path stroke-linecap="butt" stroke-linejoin="miter" fill-opacity="0" stroke-miterlimit="10" stroke="rgb(0,0,0)" stroke-opacity="1" stroke-width="2" d=" M42.57400131225586,-3.8359999656677246 C42.57400131225586,-3.8359999656677246 -15.649999618530273,3.8359999656677246 -42.57400131225586,0.0989999994635582"></path></g><g opacity="1" transform="matrix(1,0,0,1,157.4949951171875,80.63999938964844)"><path stroke-linecap="butt" stroke-linejoin="miter" fill-opacity="0" stroke-miterlimit="10" stroke="rgb(0,0,0)" stroke-opacity="1" stroke-width="2" d=" M37.77000045776367,-2.569000005722046 C37.77000045776367,-2.569000005722046 -16.847999572753906,5.230999946594238 -37.77000045776367,-5.230999946594238"></path></g><g opacity="1" transform="matrix(1,0,0,1,138.8780059814453,110.65599822998047)"><path stroke-linecap="butt" stroke-linejoin="miter" fill-opacity="0" stroke-miterlimit="10" stroke="rgb(0,0,0)" stroke-opacity="1" stroke-width="2" d=" M32.5880012512207,-1.9539999961853027 C32.5880012512207,-1.9539999961853027 -10.454000473022461,6.170000076293945 -32.5880012512207,-6.170000076293945"></path></g></g><g transform="matrix(0.9999205470085144,0.01261091884225607,-0.01261091884225607,0.9999205470085144,94.46366882324219,137.06446838378906)" opacity="1" style="display: block;"><g opacity="1" transform="matrix(1,0,0,1,131.1739959716797,137.82699584960938)"><path fill="rgb(250,199,180)" fill-opacity="1" d=" M130.9239959716797,44.9900016784668 C130.9239959716797,44.9900016784668 -79.50900268554688,-128.51800537109375 -79.50900268554688,-128.51800537109375 C-87.93399810791016,-135.9340057373047 -99.98500061035156,-137.5760040283203 -110.08899688720703,-132.68600463867188 C-126.2699966430664,-124.85299682617188 -130.9239959716797,-103.98300170898438 -119.60099792480469,-90.01799774169922 C-119.60099792480469,-90.01799774169922 -119.26399993896484,-89.02400207519531 -119.26399993896484,-89.02400207519531 C-87.7979965209961,3.634000062942505 -26.59600067138672,83.2959976196289 54.82400131225586,137.5760040283203 C54.82400131225586,137.5760040283203 54.82500076293945,137.5760040283203 54.82500076293945,137.5760040283203 C54.82500076293945,137.5760040283203 130.9239959716797,44.9900016784668 130.9239959716797,44.9900016784668z"></path></g><g opacity="1" transform="matrix(1,0,0,1,136.8350067138672,158.48699951171875)"><path stroke-linecap="butt" stroke-linejoin="miter" fill-opacity="0" stroke-miterlimit="10" stroke="rgb(0,0,0)" stroke-opacity="1" stroke-width="2" d=" M-125.26200103759766,-110.6780014038086 C-125.26200103759766,-110.6780014038086 -85.77799987792969,25.905000686645508 49.16299819946289,116.91600036621094 C49.16299819946289,116.91600036621094 125.26200103759766,24.329999923706055 125.26200103759766,24.329999923706055 C125.26200103759766,24.329999923706055 -46.04199981689453,-116.91600036621094 -46.04199981689453,-116.91600036621094"></path></g></g><g transform="matrix(0.9999517202377319,-0.009830847382545471,0.009830847382545471,0.9999517202377319,281.3163757324219,112.61812591552734)" opacity="1" style="display: block;"><g opacity="1" transform="matrix(1,0,0,1,122.33399963378906,65.25)"><path fill="rgb(29,29,27)" fill-opacity="1" d=" M-113.05000305175781,65 C-113.05000305175781,65 113.0510025024414,65 113.0510025024414,65 C118.03900146484375,65 122.08399963378906,60.95600128173828 122.08399963378906,55.965999603271484 C122.08399963378906,55.965999603271484 122.08399963378906,-55.965999603271484 122.08399963378906,-55.965999603271484 C122.08399963378906,-60.95600128173828 118.03900146484375,-65 113.0510025024414,-65 C113.0510025024414,-65 -113.05000305175781,-65 -113.05000305175781,-65 C-118.03900146484375,-65 -122.08399963378906,-60.95600128173828 -122.08399963378906,-55.965999603271484 C-122.08399963378906,-55.965999603271484 -122.08399963378906,55.965999603271484 -122.08399963378906,55.965999603271484 C-122.08399963378906,60.95600128173828 -118.03900146484375,65 -113.05000305175781,65z"></path></g></g><g transform="matrix(0.9999517202377319,-0.009830847382545471,0.009830847382545471,0.9999517202377319,278.53460693359375,91.39444732666016)" opacity="1" style="display: block;"><g opacity="1" transform="matrix(1,0,0,1,116.48899841308594,67.5)"><path fill="rgb(190,220,217)" fill-opacity="1" d=" M-104.95500183105469,65 C-104.95500183105469,65 104.95600128173828,65 104.95600128173828,65 C109.94499969482422,65 113.98899841308594,60.95600128173828 113.98899841308594,55.965999603271484 C113.98899841308594,55.965999603271484 113.98899841308594,-55.96699905395508 113.98899841308594,-55.96699905395508 C113.98899841308594,-60.95600128173828 109.94499969482422,-65 104.95600128173828,-65 C104.95600128173828,-65 -104.95500183105469,-65 -104.95500183105469,-65 C-109.94400024414062,-65 -113.98899841308594,-60.95600128173828 -113.98899841308594,-55.96699905395508 C-113.98899841308594,-55.96699905395508 -113.98899841308594,55.965999603271484 -113.98899841308594,55.965999603271484 C-113.98899841308594,60.95600128173828 -109.94400024414062,65 -104.95500183105469,65z"></path><path stroke-linecap="butt" stroke-linejoin="miter" fill-opacity="0" stroke-miterlimit="10" stroke="rgb(255,255,255)" stroke-opacity="1" stroke-width="1" d=" M-104.95500183105469,65 C-104.95500183105469,65 104.95600128173828,65 104.95600128173828,65 C109.94499969482422,65 113.98899841308594,60.95600128173828 113.98899841308594,55.965999603271484 C113.98899841308594,55.965999603271484 113.98899841308594,-55.96699905395508 113.98899841308594,-55.96699905395508 C113.98899841308594,-60.95600128173828 109.94499969482422,-65 104.95600128173828,-65 C104.95600128173828,-65 -104.95500183105469,-65 -104.95500183105469,-65 C-109.94400024414062,-65 -113.98899841308594,-60.95600128173828 -113.98899841308594,-55.96699905395508 C-113.98899841308594,-55.96699905395508 -113.98899841308594,55.965999603271484 -113.98899841308594,55.965999603271484 C-113.98899841308594,60.95600128173828 -109.94400024414062,65 -104.95500183105469,65z"></path></g><g opacity="1" transform="matrix(1,0,0,1,207.2570037841797,19.184999465942383)"><path fill="rgb(255,255,255)" fill-opacity="1" d=" M-3.1710000038146973,0 C-3.1710000038146973,1.7510000467300415 -1.7510000467300415,3.1710000038146973 0,3.1710000038146973 C1.7519999742507935,3.1710000038146973 3.1710000038146973,1.7510000467300415 3.1710000038146973,0 C3.1710000038146973,-1.7510000467300415 1.7519999742507935,-3.1710000038146973 0,-3.1710000038146973 C-1.7510000467300415,-3.1710000038146973 -3.1710000038146973,-1.7510000467300415 -3.1710000038146973,0z"></path><path stroke-linecap="butt" stroke-linejoin="miter" fill-opacity="0" stroke-miterlimit="10" stroke="rgb(255,255,255)" stroke-opacity="1" stroke-width="1" d=" M-3.1710000038146973,0 C-3.1710000038146973,1.7510000467300415 -1.7510000467300415,3.1710000038146973 0,3.1710000038146973 C1.7519999742507935,3.1710000038146973 3.1710000038146973,1.7510000467300415 3.1710000038146973,0 C3.1710000038146973,-1.7510000467300415 1.7519999742507935,-3.1710000038146973 0,-3.1710000038146973 C-1.7510000467300415,-3.1710000038146973 -3.1710000038146973,-1.7510000467300415 -3.1710000038146973,0z"></path></g><g opacity="1" transform="matrix(1,0,0,1,198.4759979248047,19.184999465942383)"><path fill="rgb(255,255,255)" fill-opacity="1" d=" M-3.1710000038146973,0 C-3.1710000038146973,1.7510000467300415 -1.7519999742507935,3.1710000038146973 -0.0010000000474974513,3.1710000038146973 C1.7510000467300415,3.1710000038146973 3.1710000038146973,1.7510000467300415 3.1710000038146973,0 C3.1710000038146973,-1.7510000467300415 1.7510000467300415,-3.1710000038146973 -0.0010000000474974513,-3.1710000038146973 C-1.7519999742507935,-3.1710000038146973 -3.1710000038146973,-1.7510000467300415 -3.1710000038146973,0z"></path><path stroke-linecap="butt" stroke-linejoin="miter" fill-opacity="0" stroke-miterlimit="10" stroke="rgb(255,255,255)" stroke-opacity="1" stroke-width="1" d=" M-3.1710000038146973,0 C-3.1710000038146973,1.7510000467300415 -1.7519999742507935,3.1710000038146973 -0.0010000000474974513,3.1710000038146973 C1.7510000467300415,3.1710000038146973 3.1710000038146973,1.7510000467300415 3.1710000038146973,0 C3.1710000038146973,-1.7510000467300415 1.7510000467300415,-3.1710000038146973 -0.0010000000474974513,-3.1710000038146973 C-1.7519999742507935,-3.1710000038146973 -3.1710000038146973,-1.7510000467300415 -3.1710000038146973,0z"></path></g><g opacity="1" transform="matrix(1,0,0,1,189.69500732421875,19.184999465942383)"><path fill="rgb(255,255,255)" fill-opacity="1" d=" M-3.1710000038146973,0 C-3.1710000038146973,1.7510000467300415 -1.7519999742507935,3.1710000038146973 0,3.1710000038146973 C1.7510000467300415,3.1710000038146973 3.1710000038146973,1.7510000467300415 3.1710000038146973,0 C3.1710000038146973,-1.7510000467300415 1.7510000467300415,-3.1710000038146973 0,-3.1710000038146973 C-1.7519999742507935,-3.1710000038146973 -3.1710000038146973,-1.7510000467300415 -3.1710000038146973,0z"></path><path stroke-linecap="butt" stroke-linejoin="miter" fill-opacity="0" stroke-miterlimit="10" stroke="rgb(255,255,255)" stroke-opacity="1" stroke-width="1" d=" M-3.1710000038146973,0 C-3.1710000038146973,1.7510000467300415 -1.7519999742507935,3.1710000038146973 0,3.1710000038146973 C1.7510000467300415,3.1710000038146973 3.1710000038146973,1.7510000467300415 3.1710000038146973,0 C3.1710000038146973,-1.7510000467300415 1.7510000467300415,-3.1710000038146973 0,-3.1710000038146973 C-1.7519999742507935,-3.1710000038146973 -3.1710000038146973,-1.7510000467300415 -3.1710000038146973,0z"></path></g></g><g transform="matrix(0.9999517202377319,-0.009830847382545471,0.009830847382545471,0.9999517202377319,375.9381408691406,126.57259368896484)" opacity="1" style="display: block;"><g opacity="1" transform="matrix(1,0,0,1,20.541000366210938,31.638999938964844)"><path fill="rgb(57,85,148)" fill-opacity="1" d=" M-15.538999557495117,13.418999671936035 C-15.538999557495117,13.418999671936035 -13.100000381469727,13.123000144958496 -13.100000381469727,13.123000144958496 C-11.069999694824219,12.876999855041504 -9.090999603271484,14.012999534606934 -8.371999740600586,15.925999641418457 C-7.861000061035156,17.28700065612793 -7.142000198364258,18.416000366210938 -6.2129998207092285,19.31100082397461 C-4.61899995803833,20.849000930786133 -2.690000057220459,21.618000030517578 -0.4269999861717224,21.618000030517578 C2.00600004196167,21.618000030517578 4.053999900817871,20.69499969482422 5.7179999351501465,18.850000381469727 C7.38100004196167,17.003999710083008 8.213000297546387,14.517000198364258 8.213000297546387,11.385000228881836 C8.213000297546387,8.42199993133545 7.415999889373779,6.073999881744385 5.822999954223633,4.340000152587891 C4.229000091552734,2.6059999465942383 2.2850000858306885,1.7400000095367432 -0.006000000052154064,1.7400000095367432 C-0.006000000052154064,1.7400000095367432 -0.052000001072883606,1.7400000095367432 -0.052000001072883606,1.7400000095367432 C-2.811000108718872,1.7510000467300415 -4.980000019073486,-0.6000000238418579 -4.610000133514404,-3.3350000381469727 C-4.610000133514404,-3.3350000381469727 -4.604000091552734,-3.372999906539917 -4.604000091552734,-3.372999906539917 C-4.341000080108643,-5.322999954223633 -2.8340001106262207,-6.8470001220703125 -0.8980000019073486,-7.205999851226807 C0.7620000243186951,-7.514999866485596 2.121000051498413,-8.131999969482422 3.180000066757202,-9.059000015258789 C4.857999801635742,-10.526000022888184 5.697000026702881,-12.47599983215332 5.697000026702881,-14.907999992370605 C5.697000026702881,-16.976999282836914 5.080999851226807,-18.625999450683594 3.8519999980926514,-19.856000900268555 C2.621000051498413,-21.086000442504883 0.9850000143051147,-21.70199966430664 -1.0549999475479126,-21.70199966430664 C-3.068000078201294,-21.70199966430664 -4.7870001792907715,-21.00200080871582 -6.2129998207092285,-19.604999542236328 C-6.9629998207092285,-18.8700008392334 -7.559000015258789,-17.95599937438965 -7.999000072479248,-16.864999771118164 C-8.781000137329102,-14.928000450134277 -10.842000007629395,-13.82699966430664 -12.901000022888184,-14.177000045776367 C-12.901000022888184,-14.177000045776367 -14.71500015258789,-14.484999656677246 -14.71500015258789,-14.484999656677246 C-17.520999908447266,-14.961999893188477 -19.218000411987305,-17.902999877929688 -18.173999786376953,-20.551000595092773 C-17.621999740600586,-21.950000762939453 -16.98200035095215,-23.18000030517578 -16.256999969482422,-24.23900032043457 C-14.732999801635742,-26.461000442504883 -12.607999801635742,-28.208999633789062 -9.881999969482422,-29.479999542236328 C-7.156000137329102,-30.75200080871582 -4.1020002365112305,-31.388999938964844 -0.7200000286102295,-31.388999938964844 C5.066999912261963,-31.388999938964844 9.708999633789062,-29.54400062561035 13.20300006866455,-25.85300064086914 C16.082000732421875,-22.833999633789062 17.523000717163086,-19.42300033569336 17.523000717163086,-15.621999740600586 C17.523000717163086,-10.225000381469727 14.572999954223633,-5.919000148773193 8.673999786376953,-2.7049999237060547 C12.196999549865723,-1.9500000476837158 15.012999534606934,-0.257999986410141 17.124000549316406,2.36899995803833 C19.233999252319336,4.997000217437744 20.291000366210938,8.170000076293945 20.291000366210938,11.888999938964844 C20.291000366210938,17.28499984741211 18.319000244140625,21.882999420166016 14.378000259399414,25.684999465942383 C10.4350004196167,29.488000869750977 5.5279998779296875,31.388999938964844 -0.34200000762939453,31.388999938964844 C-5.906000137329102,31.388999938964844 -10.517999649047852,29.788999557495117 -14.180999755859375,26.586999893188477 C-16.42300033569336,24.628000259399414 -18.08799934387207,22.299999237060547 -19.177000045776367,19.60300064086914 C-20.291000366210938,16.844999313354492 -18.492000579833984,13.777000427246094 -15.538999557495117,13.418999671936035z"></path></g></g><g transform="matrix(0.5292110443115234,0.8484901785850525,-0.8484901785850525,0.5292110443115234,416.243408203125,73.3712158203125)" opacity="1" style="display: block;"><g opacity="1" transform="matrix(1,0,0,1,62.1510009765625,60.34400177001953)"><path stroke-linecap="butt" stroke-linejoin="miter" fill-opacity="0" stroke-miterlimit="10" stroke="rgb(255,255,255)" stroke-opacity="1" stroke-width="2" d=" M48.840999603271484,0 C48.840999603271484,26.974000930786133 26.974000930786133,48.84000015258789 0,48.84000015258789 C-26.974000930786133,48.84000015258789 -48.840999603271484,26.974000930786133 -48.840999603271484,0 C-48.840999603271484,-26.974000930786133 -26.974000930786133,-48.84000015258789 0,-48.84000015258789 C26.974000930786133,-48.84000015258789 48.840999603271484,-26.974000930786133 48.840999603271484,0z"></path></g><g opacity="1" transform="matrix(1,0,0,1,61.474998474121094,60.29199981689453)"><path stroke-linecap="butt" stroke-linejoin="miter" fill-opacity="0" stroke-miterlimit="10" stroke="rgb(255,255,255)" stroke-opacity="1" stroke-width="2" d=" M41.26499938964844,0 C41.26499938964844,22.790000915527344 22.790000915527344,41.26499938964844 0,41.26499938964844 C-22.790000915527344,41.26499938964844 -41.26499938964844,22.790000915527344 -41.26499938964844,0 C-41.26499938964844,-22.790000915527344 -22.790000915527344,-41.26499938964844 0,-41.26499938964844 C22.790000915527344,-41.26499938964844 41.26499938964844,-22.790000915527344 41.26499938964844,0z"></path></g><g opacity="1" transform="matrix(1,0,0,1,61.36399841308594,60.347999572753906)"><path stroke-linecap="butt" stroke-linejoin="miter" fill-opacity="0" stroke-miterlimit="10" stroke="rgb(255,255,255)" stroke-opacity="1" stroke-width="2" d=" M-41.76300048828125,-41.98500061035156 C-41.76300048828125,-41.98500061035156 41.76300048828125,41.98500061035156 41.76300048828125,41.98500061035156"></path></g><g opacity="1" transform="matrix(1,0,0,1,0,0)"><path stroke-linecap="butt" stroke-linejoin="miter" fill-opacity="0" stroke-miterlimit="10" stroke="rgb(255,255,255)" stroke-opacity="1" stroke-width="2" d=" M1,60.28300094604492 C1,60.28300094604492 121.5979995727539,60.28300094604492 121.5979995727539,60.28300094604492"></path></g><g opacity="1" transform="matrix(1,0,0,1,0,0)"><path stroke-linecap="butt" stroke-linejoin="miter" fill-opacity="0" stroke-miterlimit="10" stroke="rgb(255,255,255)" stroke-opacity="1" stroke-width="2" d=" M61.52000045776367,1 C61.52000045776367,1 61.52000045776367,119.56700134277344 61.52000045776367,119.56700134277344"></path></g></g><g transform="matrix(0.9991660714149475,-0.0408315509557724,0.0408315509557724,0.9991660714149475,103.63912200927734,67.27411651611328)" opacity="1" style="display: block;"><g opacity="1" transform="matrix(1,0,0,1,53.26900100708008,85.71499633789062)"><path fill="rgb(255,253,255)" fill-opacity="1" d=" M-9.77299976348877,-35.61399841308594 C-9.77299976348877,-35.61399841308594 -53.01900100708008,-19.565000534057617 -36.20800018310547,8.02400016784668 C-19.395999908447266,35.61399841308594 9.630999565124512,27.18000030517578 16.34600067138672,9.352999687194824 C16.34600067138672,9.352999687194824 30.393999099731445,24.191999435424805 41.70600128173828,13.048999786376953 C53.01900100708008,1.906999945640564 36.54499816894531,-13.664999961853027 36.54499816894531,-13.664999961853027 C36.54499816894531,-13.664999961853027 -9.77299976348877,-35.61399841308594 -9.77299976348877,-35.61399841308594z"></path></g><g opacity="1" transform="matrix(1,0,0,1,50.025001525878906,44.58000183105469)"><path fill="rgb(250,137,57)" fill-opacity="1" d=" M34.39400100708008,4.585999965667725 C34.39400100708008,4.585999965667725 25.22100067138672,25.986000061035156 25.22100067138672,25.986000061035156 C25.22100067138672,25.986000061035156 11.46500015258789,44.33000183105469 -11.46399974822998,32.10100173950195 C-34.393001556396484,19.871999740600586 -12.994000434875488,-13.758000373840332 -12.994000434875488,-13.758000373840332 C-12.994000434875488,-13.758000373840332 2.2920000553131104,-44.33000183105469 2.2920000553131104,-44.33000183105469 C2.2920000553131104,-44.33000183105469 34.39400100708008,4.585999965667725 34.39400100708008,4.585999965667725z"></path></g><g opacity="1" transform="matrix(1,0,0,1,68.36900329589844,33.1150016784668)"><path fill="rgb(0,0,0)" fill-opacity="1" d=" M17.57900047302246,11.46500015258789 C17.57900047302246,11.46500015258789 8.406999588012695,32.8650016784668 8.406999588012695,32.8650016784668 C8.406999588012695,32.8650016784668 -8.406999588012695,17.57900047302246 -17.57900047302246,-32.8650016784668 C-17.57900047302246,-32.8650016784668 17.57900047302246,11.46500015258789 17.57900047302246,11.46500015258789z"></path></g></g><g transform="matrix(0.9958594441413879,0.09090687334537506,-0.09090687334537506,0.9958594441413879,146.2435760498047,1.5957449674606323)" opacity="1" style="display: block;"><g opacity="1" transform="matrix(1,0,0,1,38.96699905395508,37.375999450683594)"><path fill="rgb(0,0,0)" fill-opacity="1" d=" M-19.966999053955078,-21.27199935913086 C-26.33799934387207,-16.007999420166016 -31.777000427246094,-9.663000106811523 -33.60900115966797,-2.3980000019073486 C-37.07699966430664,11.357000350952148 -27.207000732421875,24.81100082397461 -17.165000915527344,36.18600082397461 C-16.45800018310547,26.917999267578125 -12.645000457763672,17.822999954223633 -6.252999782562256,10.159000396728516 C-0.07100000232458115,2.746000051498413 8.329999923706055,-3.2109999656677246 15.420999526977539,-10.055000305175781 C22.268999099731445,-16.666000366210938 37.07699966430664,-33.40800094604492 19.132999420166016,-34.93899917602539 C4.5279998779296875,-36.1870002746582 -9.982000350952148,-29.523000717163086 -19.966999053955078,-21.27199935913086z"></path></g><g opacity="1" transform="matrix(1,0,0,1,55.196998596191406,70.00199890136719)"><path fill="rgb(250,137,57)" fill-opacity="1" d=" M41.17599868774414,-36.90800094604492 C54.948001861572266,-14.446000099182129 53.97200012207031,16.17300033569336 38.797000885009766,37.7130012512207 C35.428001403808594,42.49399948120117 31.270999908447266,46.96099853515625 25.902000427246094,49.28200149536133 C19.086000442504883,52.229000091552734 11.260000228881836,51.356998443603516 4,49.79800033569336 C0.007000000216066837,48.939998626708984 -3.9670000076293945,47.88399887084961 -7.682000160217285,46.1879997253418 C-16.381000518798828,42.215999603271484 -23.207000732421875,34.91600036621094 -28.2810001373291,26.81100082397461 C-33.35499954223633,18.704999923706055 -36.85900115966797,9.73799991607666 -40.520999908447266,0.9049999713897705 C-41.14500045776367,-0.6010000109672546 -41.823001861572266,-2.1689999103546143 -43.09299850463867,-3.190000057220459 C-43.858001708984375,-3.805000066757202 -44.784000396728516,-4.176000118255615 -45.6609992980957,-4.618000030517578 C-51.23899841308594,-7.427999973297119 -54.948001861572266,-13.600000381469727 -54.80699920654297,-19.844999313354492 C-54.667999267578125,-26.09000015258789 -50.68600082397461,-32.09000015258789 -44.98699951171875,-34.645999908447266 C-40.18000030517578,-36.801998138427734 -34.60300064086914,-36.55500030517578 -29.489999771118164,-35.28900146484375 C-28.150999069213867,-34.957000732421875 -26.764999389648438,-34.555999755859375 -25.415000915527344,-34.83700180053711 C-22.049999237060547,-35.53499984741211 -20.97100067138672,-39.654998779296875 -19.22100067138672,-42.612998962402344 C-15.571999549865723,-48.7869987487793 -7.616000175476074,-50.72700119018555 -0.47099998593330383,-51.345001220703125 C8.343999862670898,-52.10599899291992 18.176000595092773,-52.229000091552734 26.826000213623047,-50.0890007019043 C33.43600082397461,-48.45399856567383 37.71900177001953,-42.54600143432617 41.17599868774414,-36.90800094604492z"></path></g><g opacity="1" transform="matrix(1,0,0,1,96.0250015258789,58.742000579833984)"><path fill="rgb(81,11,6)" fill-opacity="1" d=" M-2.2929999828338623,0.05400000140070915 C-2.2750000953674316,2.1389999389648438 -1.25600004196167,3.821000099182129 0,3.821000099182129 C1.2669999599456787,3.821000099182129 2.2929999828338623,2.109999895095825 2.2929999828338623,-0.0010000000474974513 C2.2929999828338623,-2.1110000610351562 1.2669999599456787,-3.821000099182129 0,-3.821000099182129 C-1.2669999599456787,-3.821000099182129 -2.2929999828338623,-2.1110000610351562 -2.2929999828338623,-0.0010000000474974513 C-2.2929999828338623,-0.0010000000474974513 -2.2929999828338623,-0.0010000000474974513 -2.2929999828338623,-0.0010000000474974513 C-2.2929999828338623,0.017000000923871994 -2.2929999828338623,0.03500000014901161 -2.2929999828338623,0.05400000140070915"></path></g><g opacity="1" transform="matrix(1,0,0,1,68.51100158691406,60.27000045776367)"><path fill="rgb(81,11,6)" fill-opacity="1" d=" M-2.2929999828338623,0.054999999701976776 C-2.2750000953674316,2.1389999389648438 -1.25600004196167,3.821000099182129 0,3.821000099182129 C1.2660000324249268,3.821000099182129 2.2929999828338623,2.109999895095825 2.2929999828338623,0 C2.2929999828338623,-2.1110000610351562 1.2660000324249268,-3.821000099182129 0,-3.821000099182129 C-1.2669999599456787,-3.821000099182129 -2.2929999828338623,-2.1110000610351562 -2.2929999828338623,0 C-2.2929999828338623,0 -2.2929999828338623,0 -2.2929999828338623,0 C-2.2929999828338623,0.017999999225139618 -2.2929999828338623,0.035999998450279236 -2.2929999828338623,0.054999999701976776"></path></g><g opacity="1" transform="matrix(1,0,0,1,85.44999694824219,61.0359992980957)"><path stroke-linecap="butt" stroke-linejoin="miter" fill-opacity="0" stroke-miterlimit="10" stroke="rgb(81,11,6)" stroke-opacity="1" stroke-width="2" d=" M-3.1059999465942383,-13.378999710083008 C-2.8259999752044678,-8.961999893188477 -1.0470000505447388,-4.763999938964844 1.1649999618530273,-0.9319999814033508 C1.8370000123977661,0.23100000619888306 2.562999963760376,1.3960000276565552 2.8519999980926514,2.7079999446868896 C3.321000099182129,4.828000068664551 2.571000099182129,7.070000171661377 1.3220000267028809,8.845999717712402 C0.07400000095367432,10.621000289916992 -1.6349999904632568,12.01200008392334 -3.321000099182129,13.378999710083008"></path></g><g opacity="1" transform="matrix(1,0,0,1,40.23099899291992,70.20700073242188)"><path fill="rgb(255,255,255)" fill-opacity="1" d=" M-7.64300012588501,0 C-7.64300012588501,4.2210001945495605 -4.2210001945495605,7.64300012588501 0.0010000000474974513,7.64300012588501 C4.2210001945495605,7.64300012588501 7.64300012588501,4.2210001945495605 7.64300012588501,0 C7.64300012588501,-4.2210001945495605 4.2210001945495605,-7.64300012588501 0.0010000000474974513,-7.64300012588501 C-4.2210001945495605,-7.64300012588501 -7.64300012588501,-4.2210001945495605 -7.64300012588501,0z"></path></g><g opacity="1" transform="matrix(1,0,0,1,63.31100082397461,51.32400131225586)"><path fill="rgb(81,11,6)" fill-opacity="1" d=" M3.186000108718872,-1.1619999408721924 C-0.057999998331069946,0.8460000157356262 -3.990999937057495,1.8359999656677246 -8.010000228881836,1.6549999713897705 C-5.169000148773193,3.2330000400543213 0.3160000145435333,4.146999835968018 3.6489999294281006,1.7009999752044678 C7.632999897003174,-1.2239999771118164 8.010000228881836,-4.1479997634887695 3.186000108718872,-1.1619999408721924z"></path></g><g opacity="1" transform="matrix(1,0,0,1,95.18000030517578,48.94499969482422)"><path fill="rgb(81,11,6)" fill-opacity="1" d=" M-2.193000078201294,-1.4119999408721924 C1.5210000276565552,-0.5379999876022339 5.000999927520752,1.5429999828338623 7.716000080108643,4.513000011444092 C6.822999954223633,1.3890000581741333 3.5899999141693115,-3.135999917984009 -0.4970000088214874,-3.763000011444092 C-5.381999969482422,-4.513000011444092 -7.715000152587891,-2.7109999656677246 -2.193000078201294,-1.4119999408721924z"></path></g><g opacity="1" transform="matrix(1,0,0,1,81.86299896240234,86.69200134277344)"><path stroke-linecap="butt" stroke-linejoin="miter" fill-opacity="0" stroke-miterlimit="10" stroke="rgb(81,11,6)" stroke-opacity="1" stroke-width="2" d=" M-8.60099983215332,3.171999931335449 C-2.359999895095825,3.2009999752044678 3.868000030517578,0.8949999809265137 8.60099983215332,-3.2009999752044678"></path></g><g opacity="1" transform="matrix(1,0,0,1,67.02100372314453,20.263999938964844)"><path fill="rgb(0,0,0)" fill-opacity="1" d=" M-3.5490000247955322,-20.013999938964844 C-3.5490000247955322,-20.013999938964844 33.43199920654297,-17.506000518798828 39.53099822998047,20.013999938964844 C39.53099822998047,20.013999938964844 -19.14699935913086,20.013999938964844 -19.14699935913086,20.013999938964844 C-19.14699935913086,20.013999938964844 -21.3700008392334,11.50100040435791 -21.3700008392334,11.50100040435791 C-21.3700008392334,11.50100040435791 -24.736000061035156,20.013999938964844 -24.736000061035156,20.013999938964844 C-24.736000061035156,20.013999938964844 -39.53099822998047,20.013999938964844 -39.53099822998047,20.013999938964844 C-39.53099822998047,20.013999938964844 -34.72700119018555,-13.97700023651123 -3.5490000247955322,-20.013999938964844z"></path></g><g opacity="1" transform="matrix(1,0,0,1,13.489999771118164,47.981998443603516)"><path stroke-linecap="butt" stroke-linejoin="miter" fill-opacity="0" stroke-miterlimit="10" stroke="rgb(81,11,6)" stroke-opacity="1" stroke-width="2" d=" M2.4820001125335693,6.761000156402588 C3.5199999809265137,4.284999847412109 3.4700000286102295,1.375 2.3469998836517334,-1.0640000104904175 C1.2239999771118164,-3.502000093460083 -0.9539999961853027,-5.433000087738037 -3.509999990463257,-6.254000186920166 C-3.513000011444092,-6.422999858856201 -3.5169999599456787,-6.5920000076293945 -3.5199999809265137,-6.761000156402588"></path></g></g><g transform="matrix(0.9999367594718933,-0.011244482360780239,0.011244482360780239,0.9999367594718933,298.5323791503906,35.37265396118164)" opacity="1" style="display: block;"><g opacity="1" transform="matrix(1,0,0,1,98.97699737548828,62.05699920654297)"><path fill="rgb(241,141,48)" fill-opacity="1" d=" M-28.42799949645996,-4.364999771118164 C-28.42799949645996,-4.364999771118164 -83.28199768066406,-21.590999603271484 -83.28199768066406,-21.590999603271484 C-89.93199920654297,-23.469999313354492 -93.97699737548828,-30.104000091552734 -92.54399871826172,-36.78200149536133 C-90.94599914550781,-44.23099899291992 -83.23100280761719,-48.736000061035156 -75.84400177001953,-46.534000396728516 C-75.84400177001953,-46.534000396728516 -47.51900100708008,-38.09199905395508 -47.51900100708008,-38.09199905395508 C-42.59199905395508,-36.62300109863281 -37.3129997253418,-36.79199981689453 -32.49300003051758,-38.571998596191406 C-32.49300003051758,-38.571998596191406 -17.124000549316406,-44.24700164794922 -17.124000549316406,-44.24700164794922 C-12.038999557495117,-46.124000549316406 -6.505000114440918,-46.4739990234375 -1.218999981880188,-45.25299835205078 C-1.218999981880188,-45.25299835205078 5.010000228881836,-43.814998626708984 5.010000228881836,-43.814998626708984 C18.73699951171875,-57.05699920654297 36.07699966430664,-42.37799835205078 36.07699966430664,-42.37799835205078 C42.94499969482422,-49.66600036621094 54.500999450683594,-50.07899856567383 61.887001037597656,-43.303001403808594 C61.887001037597656,-43.303001403808594 63.2239990234375,-42.07500076293945 63.2239990234375,-42.07500076293945 C71.03199768066406,-50.57600021362305 79.68499755859375,-47.15700149536133 84.74800109863281,-43.763999938964844 C87.53900146484375,-41.893001556396484 89.38899993896484,-38.941001892089844 89.9260025024414,-35.65399932861328 C93.97699737548828,-10.817999839782715 91.03199768066406,14.67199993133545 81.36599731445312,38.01300048828125 C81.36599731445312,38.01300048828125 80.46700286865234,40.185001373291016 80.46700286865234,40.185001373291016 C80.46700286865234,40.185001373291016 79.0510025024414,41.75199890136719 79.0510025024414,41.75199890136719 C73.5009994506836,48.382999420166016 65.07599639892578,47.99700164794922 58.07699966430664,42.87200164794922 C58.07699966430664,42.87200164794922 57.284000396728516,42.29100036621094 57.284000396728516,42.29100036621094 C57.284000396728516,42.29100036621094 51.09600067138672,49.29800033569336 51.09600067138672,49.29800033569336 C44.54399871826172,56.71699905395508 32.847999572753906,56.68299865722656 26.339000701904297,49.22600173950195 C26.339000701904297,49.22600173950195 22.48699951171875,44.81399917602539 22.48699951171875,44.81399917602539 C22.48699951171875,44.81399917602539 13.680000305175781,51.233001708984375 13.680000305175781,51.233001708984375 C5.692999839782715,57.055999755859375 -5.665999889373779,54.582000732421875 -10.427000045776367,45.981998443603516 C-10.427000045776367,45.981998443603516 -13.881999969482422,39.74100112915039 -13.881999969482422,39.74100112915039 C-13.881999969482422,39.74100112915039 -16.958999633789062,41.12200164794922 -16.958999633789062,41.12200164794922 C-26.481000900268555,45.39500045776367 -37.56700134277344,39.887001037597656 -39.75699996948242,29.795000076293945 C-39.75699996948242,29.795000076293945 -40.1609992980957,27.933000564575195 -40.1609992980957,27.933000564575195 C-40.1609992980957,27.933000564575195 -28.42799949645996,-4.364999771118164 -28.42799949645996,-4.364999771118164z"></path><path stroke-linecap="butt" stroke-linejoin="miter" fill-opacity="0" stroke-miterlimit="10" stroke="rgb(0,0,0)" stroke-opacity="1" stroke-width="2" d=" M-28.42799949645996,-4.364999771118164 C-28.42799949645996,-4.364999771118164 -83.28199768066406,-21.590999603271484 -83.28199768066406,-21.590999603271484 C-89.93199920654297,-23.469999313354492 -93.97699737548828,-30.104000091552734 -92.54399871826172,-36.78200149536133 C-90.94599914550781,-44.23099899291992 -83.23100280761719,-48.736000061035156 -75.84400177001953,-46.534000396728516 C-75.84400177001953,-46.534000396728516 -47.51900100708008,-38.09199905395508 -47.51900100708008,-38.09199905395508 C-42.59199905395508,-36.62300109863281 -37.3129997253418,-36.79199981689453 -32.49300003051758,-38.571998596191406 C-32.49300003051758,-38.571998596191406 -17.124000549316406,-44.24700164794922 -17.124000549316406,-44.24700164794922 C-12.038999557495117,-46.124000549316406 -6.505000114440918,-46.4739990234375 -1.218999981880188,-45.25299835205078 C-1.218999981880188,-45.25299835205078 5.010000228881836,-43.814998626708984 5.010000228881836,-43.814998626708984 C18.73699951171875,-57.05699920654297 36.07699966430664,-42.37799835205078 36.07699966430664,-42.37799835205078 C42.94499969482422,-49.66600036621094 54.500999450683594,-50.07899856567383 61.887001037597656,-43.303001403808594 C61.887001037597656,-43.303001403808594 63.2239990234375,-42.07500076293945 63.2239990234375,-42.07500076293945 C71.03199768066406,-50.57600021362305 79.68499755859375,-47.15700149536133 84.74800109863281,-43.763999938964844 C87.53900146484375,-41.893001556396484 89.38899993896484,-38.941001892089844 89.9260025024414,-35.65399932861328 C93.97699737548828,-10.817999839782715 91.03199768066406,14.67199993133545 81.36599731445312,38.01300048828125 C81.36599731445312,38.01300048828125 80.46700286865234,40.185001373291016 80.46700286865234,40.185001373291016 C80.46700286865234,40.185001373291016 79.0510025024414,41.75199890136719 79.0510025024414,41.75199890136719 C73.5009994506836,48.382999420166016 65.07599639892578,47.99700164794922 58.07699966430664,42.87200164794922 C58.07699966430664,42.87200164794922 57.284000396728516,42.29100036621094 57.284000396728516,42.29100036621094 C57.284000396728516,42.29100036621094 51.09600067138672,49.29800033569336 51.09600067138672,49.29800033569336 C44.54399871826172,56.71699905395508 32.847999572753906,56.68299865722656 26.339000701904297,49.22600173950195 C26.339000701904297,49.22600173950195 22.48699951171875,44.81399917602539 22.48699951171875,44.81399917602539 C22.48699951171875,44.81399917602539 13.680000305175781,51.233001708984375 13.680000305175781,51.233001708984375 C5.692999839782715,57.055999755859375 -5.665999889373779,54.582000732421875 -10.427000045776367,45.981998443603516 C-10.427000045776367,45.981998443603516 -13.881999969482422,39.74100112915039 -13.881999969482422,39.74100112915039 C-13.881999969482422,39.74100112915039 -16.958999633789062,41.12200164794922 -16.958999633789062,41.12200164794922 C-26.481000900268555,45.39500045776367 -37.56700134277344,39.887001037597656 -39.75699996948242,29.795000076293945 C-39.75699996948242,29.795000076293945 -40.1609992980957,27.933000564575195 -40.1609992980957,27.933000564575195 C-40.1609992980957,27.933000564575195 -28.42799949645996,-4.364999771118164 -28.42799949645996,-4.364999771118164z"></path></g><g opacity="1" transform="matrix(1,0,0,1,92.35399627685547,74.8479995727539)"><path stroke-linecap="butt" stroke-linejoin="miter" fill-opacity="0" stroke-miterlimit="10" stroke="rgb(29,29,27)" stroke-opacity="1" stroke-width="2" d=" M-7.258999824523926,26.950000762939453 C-7.258999824523926,26.950000762939453 7.258999824523926,-5.633999824523926 6.053999900817871,-26.950000762939453"></path></g><g opacity="1" transform="matrix(1,0,0,1,127.12799835205078,77.38300323486328)"><path stroke-linecap="butt" stroke-linejoin="miter" fill-opacity="0" stroke-miterlimit="10" stroke="rgb(29,29,27)" stroke-opacity="1" stroke-width="2" d=" M-5.663000106811523,29.486000061035156 C-5.663000106811523,29.486000061035156 5.663000106811523,0.6079999804496765 1.0329999923706055,-29.486000061035156"></path></g><g opacity="1" transform="matrix(1,0,0,1,159.71499633789062,76.12200164794922)"><path stroke-linecap="butt" stroke-linejoin="miter" fill-opacity="0" stroke-miterlimit="10" stroke="rgb(29,29,27)" stroke-opacity="1" stroke-width="2" d=" M-3.4539999961853027,28.225000381469727 C-3.4539999961853027,28.225000381469727 3.4539999961853027,5.630000114440918 -1.3179999589920044,-28.225000381469727"></path></g></g></g></g></svg>