<?xml version="1.0" standalone="no"?>
<!DOCTYPE svg PUBLIC "-//W3C//DTD SVG 20010904//EN"
 "http://www.w3.org/TR/2001/REC-SVG-20010904/DTD/svg10.dtd">
<svg version="1.0" xmlns="http://www.w3.org/2000/svg"
 width="424.000000pt" height="342.000000pt" viewBox="0 0 424.000000 342.000000"
 preserveAspectRatio="xMidYMid meet">

<g transform="translate(0.000000,342.000000) scale(0.100000,-0.100000)"
fill="#000000" stroke="none">
<path d="M1615 3264 c-58 -13 -122 -38 -153 -59 -55 -38 -1032 -1015 -1032
-1033 0 -25 1106 -1118 1156 -1142 49 -24 104 -26 147 -4 18 9 153 136 301
283 147 146 274 272 282 279 48 46 64 80 64 136 0 31 -6 69 -14 84 -14 25
-586 591 -628 621 -30 21 -108 19 -150 -4 -21 -11 -134 -116 -251 -232 -117
-117 -220 -213 -229 -213 -8 0 -55 41 -103 91 l-88 92 109 106 c136 133 513
492 576 550 l48 43 277 -270 c350 -340 612 -607 643 -652 12 -19 63 -75 111
-125 l88 -90 -67 -70 c-37 -38 -85 -90 -106 -115 -50 -58 -918 -944 -929 -949
-5 -2 -325 314 -711 703 -386 388 -706 706 -710 706 -4 0 -20 -12 -35 -27 -73
-71 -113 -207 -90 -309 7 -33 23 -76 35 -97 11 -21 308 -326 658 -678 729
-733 681 -694 847 -694 154 0 155 0 545 392 741 745 933 942 960 989 27 45 29
57 29 149 0 128 -6 138 -194 332 -324 333 -1145 1151 -1165 1161 -64 30 -96
40 -146 45 -30 3 -64 3 -75 1z m91 -1316 c16 -12 68 -61 117 -110 98 -99 103
-113 58 -174 -29 -40 -112 -121 -165 -162 -50 -38 -70 -30 -175 70 -113 108
-137 139 -122 165 13 25 196 205 224 220 29 16 30 16 63 -9z"/>
<path d="M2890 2230 c0 -5 5 -10 10 -10 6 0 10 5 10 10 0 6 -4 10 -10 10 -5 0
-10 -4 -10 -10z"/>
<path d="M2960 2220 c0 -5 5 -10 10 -10 6 0 10 5 10 10 0 6 -4 10 -10 10 -5 0
-10 -4 -10 -10z"/>
</g>
</svg>
